<svg width="1089" height="445" viewBox="0 0 1089 445" fill="none" xmlns="http://www.w3.org/2000/svg">
<path d="M0 405.21H4.15295V397.405H27.4097V164.165H45.5048V141.648H55.8575V132.678H80.8644V141.648H104.151V108.188H133.459V141.648H146.392V164.255H164.191V397.495H177.065V47.2162H248.763V261.648H275.016V147.539H290.56V132.797H301.061V108.188H353.656V132.797H372.463V147.539H382.43V397.405H392.575V203.607H521.288V397.405H577.65V164.165H595.745V141.648H606.098V132.678H631.075V141.648H654.361V108.188H683.669V141.648H696.573V164.255H714.372V397.495H727.246V47.2162L799.122 0V261.648H825.404V147.539H840.919V132.797H851.42V108.188H904.044V132.797H922.881V147.539H932.789V397.405H942.963V203.607H1071.68V397.405H1087.07C1086.86 400.396 1086.69 403.027 1086.54 405.21H1089V444.741H914.872C843.322 445.13 755.279 445.04 662.459 444.741H0V405.21ZM45.5048 177.053H35.9232V400.336H45.3861L45.5048 177.053ZM61.7606 177.053H49.895V189.881H61.7606V177.053ZM61.7606 196.281H49.895V209.109H61.7606V196.281ZM61.7606 215.508H49.895V228.336H61.7606V215.508ZM61.7606 234.735H49.895V247.563H61.7606V234.735ZM61.7606 253.992H49.895V266.791H61.7606V253.992ZM61.7606 273.22H49.895V286.018H61.7606V273.22ZM61.7606 292.447H49.895V305.275H61.7606V292.447ZM61.7606 311.675H49.895V324.503H61.7606V311.675ZM61.7606 330.902H49.895V343.88H61.7606V330.902ZM61.7606 350.129H49.895V362.957H61.7606V350.129ZM61.7606 369.357H49.895V382.185H61.7606V369.357ZM61.7606 388.584H49.895V401.412H61.7606V388.584ZM80.6271 177.053H68.7614V189.881H80.6271V177.053ZM80.6271 196.281H68.7614V209.109H80.6271V196.281ZM80.6271 215.508H68.7614V228.336H80.6271V215.508ZM80.6271 234.735H68.7614V247.563H80.6271V234.735ZM80.6271 253.992H68.7614V266.791H80.6271V253.992ZM80.6271 273.22H68.7614V286.018H80.6271V273.22ZM80.6271 292.447H68.7614V305.275H80.6271V292.447ZM80.6271 311.675H68.7614V324.503H80.6271V311.675ZM80.6271 330.902H68.7614V343.88H80.6271V330.902ZM80.6271 350.129H68.7614V362.957H80.6271V350.129ZM80.6271 369.357H68.7614V382.185H80.6271V369.357ZM80.6271 388.584H68.7614V401.412H80.6271V388.584ZM99.4638 177.053H87.5981V189.881H99.4638V177.053ZM99.4638 196.281H87.5981V209.109H99.4638V196.281ZM99.4638 215.508H87.5981V228.336H99.4638V215.508ZM99.4638 234.735H87.5981V247.563H99.4638V234.735ZM99.4638 253.992H87.5981V266.791H99.4638V253.992ZM99.4638 273.22H87.5981V286.018H99.4638V273.22ZM99.4638 292.447H87.5981V305.275H99.4638V292.447ZM99.4638 311.675H87.5981V324.503H99.4638V311.675ZM99.4638 330.902H87.5981V343.88H99.4638V330.902ZM99.4638 350.129H87.5981V362.957H99.4638V350.129ZM99.4638 369.357H87.5981V382.185H99.4638V369.357ZM99.4638 388.584H87.5981V401.412H99.4638V388.584ZM118.33 177.053H106.465V189.881H118.33V177.053ZM118.33 196.281H106.465V209.109H118.33V196.281ZM118.33 215.508H106.465V228.336H118.33V215.508ZM118.33 234.735H106.465V247.563H118.33V234.735ZM118.33 253.992H106.465V266.791H118.33V253.992ZM118.33 273.22H106.465V286.018H118.33V273.22ZM118.33 292.447H106.465V305.275H118.33V292.447ZM118.33 311.675H106.465V324.503H118.33V311.675ZM118.33 330.902H106.465V343.88H118.33V330.902ZM118.33 350.129H106.465V362.957H118.33V350.129ZM118.33 369.357H106.465V382.185H118.33V369.357ZM118.33 388.584H106.465V401.412H118.33V388.584ZM137.197 177.053H125.331V189.881H137.197V177.053ZM137.197 196.281H125.331V209.109H137.197V196.281ZM137.197 215.508H125.331V228.336H137.197V215.508ZM137.197 234.735H125.331V247.563H137.197V234.735ZM137.197 253.992H125.331V266.791H137.197V253.992ZM137.197 273.22H125.331V286.018H137.197V273.22ZM137.197 292.447H125.331V305.275H137.197V292.447ZM137.197 311.675H125.331V324.503H137.197V311.675ZM137.197 330.902H125.331V343.88H137.197V330.902ZM137.197 350.129H125.331V362.957H137.197V350.129ZM137.197 369.357H125.331V382.185H137.197V369.357ZM137.197 388.584H125.331V401.412H137.197V388.584ZM151.613 177.053H142.15V400.336H151.613V177.053ZM240.309 59.0277H185.727V71.7662H240.309V59.0277ZM240.309 85.5812H185.727V98.3795H240.309V85.5812ZM240.309 112.135H185.727V124.933H240.309V112.135ZM240.309 138.688H185.727V151.486H240.309V138.688ZM240.309 165.242H185.727V178.04H240.309V165.242ZM240.309 191.825H185.727V204.593H240.309V191.825ZM240.309 218.379H185.727V231.147H240.309V218.379ZM240.309 247.593H185.727V260.362H240.309V247.593ZM185.757 269.273V278.991H275.105V269.362L185.757 269.273ZM185.757 289.397V299.026H275.105V289.487L185.757 289.397ZM185.757 309.522V319.24H275.105V309.522H185.757ZM185.757 329.646V339.364H275.105V329.646H185.757ZM185.757 349.77V359.489H275.105V349.86L185.757 349.77ZM185.757 369.895V379.763H275.105V370.044L185.757 369.895ZM293.497 159.351H280.474V177.053H293.497V159.351ZM293.497 181.03H280.474V198.733H293.497V181.03ZM293.497 202.71H280.474V220.412H293.497V202.71ZM293.497 224.359H280.474V242.211H293.497V224.359ZM293.497 246.038H280.474V263.741H293.497V246.038ZM293.497 267.718H280.474V285.42H293.497V267.718ZM293.497 289.397H280.474V307.099H293.497V289.397ZM293.497 311.077H280.474V328.928H293.497V311.077ZM293.497 332.726H280.474V350.458H293.497V332.726ZM293.497 354.405H280.474V372.108H293.497V354.405ZM293.497 376.085H280.474V393.787H293.497V376.085ZM313.669 159.351H300.646V177.053H313.669V159.351ZM313.669 181.03H300.646V198.733H313.669V181.03ZM313.669 202.71H300.646V220.412H313.669V202.71ZM313.669 224.359H300.646V242.211H313.669V224.359ZM313.669 246.038H300.646V263.741H313.669V246.038ZM313.669 267.718H300.646V285.42H313.669V267.718ZM313.669 289.397H300.646V307.099H313.669V289.397ZM313.669 311.077H300.646V328.928H313.669V311.077ZM313.669 332.726H300.646V350.458H313.669V332.726ZM313.669 354.405H300.646V372.108H313.669V354.405ZM313.669 376.085H300.646V393.787H313.669V376.085ZM333.84 159.351H320.699V177.053H333.721L333.84 159.351ZM333.84 181.03H320.699V198.733H333.721L333.84 181.03ZM333.84 202.71H320.699V220.412H333.721L333.84 202.71ZM333.84 224.359H320.699V242.211H333.721L333.84 224.359ZM333.84 246.038H320.699V263.741H333.721L333.84 246.038ZM333.84 267.718H320.699V285.42H333.721L333.84 267.718ZM333.84 289.397H320.699V307.099H333.721L333.84 289.397ZM333.84 311.077H320.699V328.928H333.721L333.84 311.077ZM333.84 332.726H320.699V350.458H333.721L333.84 332.726ZM333.84 354.405H320.699V372.108H333.721L333.84 354.405ZM333.84 376.085H320.699V393.787H333.721L333.84 376.085ZM354.012 159.351H340.989V177.053H354.012V159.351ZM354.012 181.03H340.989V198.733H354.012V181.03ZM354.012 202.71H340.989V220.412H354.012V202.71ZM354.012 224.359H340.989V242.211H354.012V224.359ZM354.012 246.038H340.989V263.741H354.012V246.038ZM354.012 267.718H340.989V285.42H354.012V267.718ZM354.012 289.397H340.989V307.099H354.012V289.397ZM354.012 311.077H340.989V328.928H354.012V311.077ZM354.012 332.726H340.989V350.458H354.012V332.726ZM354.012 354.405H340.989V372.108H354.012V354.405ZM354.012 376.085H340.989V393.787H354.012V376.085ZM374.094 159.351H361.072V177.053H374.094V159.351ZM374.094 181.03H361.072V198.733H374.094V181.03ZM374.094 202.71H361.072V220.412H374.094V202.71ZM374.094 224.269H361.072V242.211H374.094V224.269ZM374.094 245.949H361.072V263.741H374.094V245.949ZM374.094 267.628H361.072V285.33H374.094V267.628ZM374.094 289.307H361.072V307.01H374.094V289.307ZM374.094 310.987H361.072V328.928H374.094V310.987ZM374.094 332.636H361.072V350.368H374.094V332.636ZM374.094 354.316H361.072V372.018H374.094V354.316ZM374.094 375.995H361.072V393.697H374.094V375.995ZM491.861 219.276H402.275V232.044H491.98L491.861 219.276ZM491.861 240.417H402.275V253.215H491.98L491.861 240.417ZM491.861 261.558H402.275V274.356H491.98L491.861 261.558ZM491.861 282.699H402.275V295.497H491.98L491.861 282.699ZM491.861 303.87H402.275V316.638H491.98L491.861 303.87ZM491.861 325.011H402.275V337.899H491.98L491.861 325.011ZM491.861 346.152H402.275V358.951H491.98L491.861 346.152ZM491.861 367.293H402.275V380.092H491.98L491.861 367.293ZM511.825 215.299H498.891V382.753H511.825V215.299ZM595.893 177.053H586.401V400.336H595.893V177.053ZM612.149 177.053H600.283V189.881H612.149V177.053ZM612.149 196.281H600.283V209.109H612.149V196.281ZM612.149 215.508H600.283V228.336H612.149V215.508ZM612.149 234.735H600.283V247.563H612.149V234.735ZM612.149 253.992H600.283V266.791H612.149V253.992ZM612.149 273.22H600.283V286.018H612.149V273.22ZM612.149 292.447H600.283V305.275H612.149V292.447ZM612.149 311.675H600.283V324.503H612.149V311.675ZM612.149 330.902H600.283V343.88H612.149V330.902ZM612.149 350.129H600.283V362.957H612.149V350.129ZM612.149 369.357H600.283V382.185H612.149V369.357ZM612.149 388.584H600.283V401.412H612.149V388.584ZM630.986 177.053H619.12V189.881H630.986V177.053ZM630.986 196.281H619.12V209.109H630.986V196.281ZM630.986 215.508H619.12V228.336H630.986V215.508ZM630.986 234.735H619.12V247.563H630.986V234.735ZM630.986 253.992H619.12V266.791H630.986V253.992ZM630.986 273.22H619.12V286.018H630.986V273.22ZM630.986 292.447H619.12V305.275H630.986V292.447ZM630.986 311.675H619.12V324.503H630.986V311.675ZM630.986 330.902H619.12V343.88H630.986V330.902ZM630.986 350.129H619.12V362.957H630.986V350.129ZM630.986 369.357H619.12V382.185H630.986V369.357ZM630.986 388.584H619.12V401.412H630.986V388.584ZM649.971 177.053H638.105V189.881H649.971V177.053ZM649.971 196.281H638.105V209.109H649.971V196.281ZM649.971 215.508H638.105V228.336H649.971V215.508ZM649.971 234.735H638.105V247.563H649.971V234.735ZM649.971 253.992H638.105V266.791H649.971V253.992ZM649.971 273.22H638.105V286.018H649.971V273.22ZM649.971 292.447H638.105V305.275H649.971V292.447ZM649.971 311.675H638.105V324.503H649.971V311.675ZM649.971 330.902H638.105V343.88H649.971V330.902ZM649.971 350.129H638.105V362.957H649.971V350.129ZM649.971 369.357H638.105V382.185H649.971V369.357ZM649.971 388.584H638.105V401.412H649.971V388.584ZM668.808 177.053H656.942V189.881H668.808V177.053ZM668.808 196.281H656.942V209.109H668.808V196.281ZM668.808 215.508H656.942V228.336H668.808V215.508ZM668.808 234.735H656.942V247.563H668.808V234.735ZM668.808 253.992H656.942V266.791H668.808V253.992ZM668.808 273.22H656.942V286.018H668.808V273.22ZM668.808 292.447H656.942V305.275H668.808V292.447ZM668.808 311.675H656.942V324.503H668.808V311.675ZM668.808 330.902H656.942V343.88H668.808V330.902ZM668.808 350.129H656.942V362.957H668.808V350.129ZM668.808 369.357H656.942V382.185H668.808V369.357ZM668.808 388.584H656.942V401.412H668.808V388.584ZM687.674 177.053H675.808V189.881H687.674V177.053ZM687.674 196.281H675.808V209.109H687.674V196.281ZM687.674 215.508H675.808V228.336H687.674V215.508ZM687.674 234.735H675.808V247.563H687.674V234.735ZM687.674 253.992H675.808V266.791H687.674V253.992ZM687.674 273.22H675.808V286.018H687.674V273.22ZM687.674 292.447H675.808V305.275H687.674V292.447ZM687.674 311.675H675.808V324.503H687.674V311.675ZM687.674 330.902H675.808V343.88H687.674V330.902ZM687.674 350.129H675.808V362.957H687.674V350.129ZM687.674 369.357H675.808V382.185H687.674V369.357ZM687.674 388.584H675.808V401.412H687.674V388.584ZM702.031 177.053H692.539V400.336H702.031V177.053ZM790.579 59.0277H735.997V71.7662H790.579V59.0277ZM790.579 85.5812H735.997V98.3795H790.579V85.5812ZM790.579 112.135H735.997V124.933H790.579V112.135ZM790.579 138.688H735.997V151.486H790.579V138.688ZM790.579 165.242H735.997V178.04H790.579V165.242ZM790.579 191.825H735.997V204.593H790.579V191.825ZM790.579 218.379H735.997V231.147H790.579V218.379ZM790.579 247.593H735.997V260.362H790.579V247.593ZM735.997 269.273V278.991H825.315V269.362L735.997 269.273ZM735.997 289.397V299.026H825.315V289.487L735.997 289.397ZM735.997 309.522V319.24H825.315V309.522H735.997ZM735.997 329.646V339.364H825.315V329.646H735.997ZM735.997 349.77V359.489H825.315V349.86L735.997 349.77ZM735.997 369.895V379.763H825.315V370.044L735.997 369.895ZM843.885 159.351H830.922V177.053H843.885V159.351ZM843.885 181.03H830.922V198.733H843.885V181.03ZM843.885 202.71H830.922V220.412H843.885V202.71ZM843.885 224.359H830.922V242.211H843.885V224.359ZM843.885 246.038H830.922V263.741H843.885V246.038ZM843.885 267.718H830.922V285.42H843.885V267.718ZM843.885 289.397H830.922V307.099H843.885V289.397ZM843.885 311.077H830.922V328.928H843.885V311.077ZM843.885 332.726H830.922V350.458H843.885V332.726ZM843.885 354.405H830.922V372.108H843.885V354.405ZM843.885 376.085H830.922V393.787H843.885V376.085ZM864.057 159.351H851.034V177.053H864.057V159.351ZM864.057 181.03H851.034V198.733H864.057V181.03ZM864.057 202.71H851.034V220.412H864.057V202.71ZM864.057 224.359H851.034V242.211H864.057V224.359ZM864.057 246.038H851.034V263.741H864.057V246.038ZM864.057 267.718H851.034V285.42H864.057V267.718ZM864.057 289.397H851.034V307.099H864.057V289.397ZM864.057 311.077H851.034V328.928H864.057V311.077ZM864.057 332.726H851.034V350.458H864.057V332.726ZM864.057 354.405H851.034V372.108H864.057V354.405ZM864.057 376.085H851.034V393.787H864.057V376.085ZM884.317 159.351H871.295V177.053H884.317V159.351ZM884.317 181.03H871.295V198.733H884.317V181.03ZM884.317 202.71H871.295V220.412H884.317V202.71ZM884.317 224.269H871.295V242.211H884.317V224.269ZM884.317 245.949H871.295V263.741H884.317V245.949ZM884.317 267.628H871.295V285.33H884.317V267.628ZM884.317 289.307H871.295V307.01H884.317V289.307ZM884.317 310.987H871.295V328.928H884.317V310.987ZM884.317 332.636H871.295V350.368H884.317V332.636ZM884.317 354.316H871.295V372.018H884.317V354.316ZM884.317 375.995H871.295V393.697H884.317V375.995ZM904.489 159.261H891.467V176.963H904.4L904.489 159.261ZM904.489 180.94H891.467V198.643H904.4L904.489 180.94ZM904.489 202.62H891.467V220.322H904.4L904.489 202.62ZM904.489 224.269H891.467V242.211H904.4L904.489 224.269ZM904.489 245.949H891.467V263.741H904.4L904.489 245.949ZM904.489 267.628H891.467V285.33H904.4L904.489 267.628ZM904.489 289.307H891.467V307.01H904.4L904.489 289.307ZM904.489 310.987H891.467V328.928H904.4L904.489 310.987ZM904.489 332.636H891.467V350.368H904.4L904.489 332.636ZM904.489 354.316H891.467V372.018H904.4L904.489 354.316ZM904.489 375.995H891.467V393.697H904.4L904.489 375.995ZM924.661 159.261H911.638V176.963H924.572L924.661 159.261ZM924.661 180.94H911.638V198.643H924.572L924.661 180.94ZM924.661 202.62H911.638V220.322H924.572L924.661 202.62ZM924.661 224.269H911.638V242.211H924.572L924.661 224.269ZM924.661 245.949H911.638V263.741H924.572L924.661 245.949ZM924.661 267.628H911.638V285.33H924.572L924.661 267.628ZM924.661 289.307H911.638V307.01H924.572L924.661 289.307ZM924.661 310.987H911.638V328.928H924.572L924.661 310.987ZM924.661 332.636H911.638V350.368H924.572L924.661 332.636ZM924.661 354.316H911.638V372.018H924.572L924.661 354.316ZM924.661 375.995H911.638V393.697H924.572L924.661 375.995ZM1042.37 219.365H952.545V232.134H1042.37V219.365ZM1042.37 240.506H952.545V253.305H1042.37V240.506ZM1042.37 261.648H952.545V274.446H1042.37V261.648ZM1042.37 282.789H952.545V295.587H1042.37V282.789ZM1042.37 303.96H952.545V316.728H1042.37V303.96ZM1042.37 325.101H952.545V337.899H1042.37V325.101ZM1042.37 346.242H952.545V359.04H1042.37V346.242ZM1042.37 367.383H952.545V380.181H1042.37V367.383ZM1062.3 215.299H1049.25V382.753H1062.3V215.299Z" fill="url(#paint0_linear_2613_571)"/>
<defs>
<linearGradient id="paint0_linear_2613_571" x1="544.5" y1="0" x2="544.5" y2="445" gradientUnits="userSpaceOnUse">
<stop stop-color="white"/>
<stop offset="1" stop-color="white" stop-opacity="0"/>
</linearGradient>
</defs>
</svg>
