<svg width="717" height="298" viewBox="0 0 717 298" fill="none" xmlns="http://www.w3.org/2000/svg">
<path d="M717 266.513H714.266V261.379H698.953V107.974H687.04V93.1643H680.223V87.2641H663.759V93.1643H648.427V71.1565H629.13V93.1643H620.615V108.033H608.896V261.438H600.42V31.0548H553.214V172.089H535.929V97.0388H525.695V87.3428H518.781V71.1565H484.152V87.3428H471.77V97.0388H465.207V261.379H458.528V133.915H373.783V261.379H336.674V107.974H324.76V93.1643H317.944V87.2641H301.499V93.1643H286.167V71.1565H266.871V93.1643H258.375V108.033H246.656V261.438H238.18V31.0548L190.856 0V172.089H173.552V97.0388H163.337V87.3428H156.423V71.1565H121.775V87.3428H109.373V97.0388H102.85V261.379H96.1508V133.915H11.4061V261.379H1.26951C1.40623 263.346 1.52341 265.077 1.62107 266.513H0V292.513H114.647C161.755 292.768 219.723 292.709 280.835 292.513H717V266.513ZM687.04 116.451H693.348V263.307H687.118L687.04 116.451ZM676.337 116.451H684.149V124.888H676.337V116.451ZM676.337 129.097H684.149V137.534H676.337V129.097ZM676.337 141.743H684.149V150.18H676.337V141.743ZM676.337 154.389H684.149V162.826H676.337V154.389ZM676.337 167.055H684.149V175.472H676.337V167.055ZM676.337 179.701H684.149V188.118H676.337V179.701ZM676.337 192.347H684.149V200.784H676.337V192.347ZM676.337 204.993H684.149V213.43H676.337V204.993ZM676.337 217.639H684.149V226.175H676.337V217.639ZM676.337 230.285H684.149V238.723H676.337V230.285ZM676.337 242.931H684.149V251.369H676.337V242.931ZM676.337 255.577H684.149V264.015H676.337V255.577ZM663.915 116.451H671.727V124.888H663.915V116.451ZM663.915 129.097H671.727V137.534H663.915V129.097ZM663.915 141.743H671.727V150.18H663.915V141.743ZM663.915 154.389H671.727V162.826H663.915V154.389ZM663.915 167.055H671.727V175.472H663.915V167.055ZM663.915 179.701H671.727V188.118H663.915V179.701ZM663.915 192.347H671.727V200.784H663.915V192.347ZM663.915 204.993H671.727V213.43H663.915V204.993ZM663.915 217.639H671.727V226.175H663.915V217.639ZM663.915 230.285H671.727V238.723H663.915V230.285ZM663.915 242.931H671.727V251.369H663.915V242.931ZM663.915 255.577H671.727V264.015H663.915V255.577ZM651.513 116.451H659.325V124.888H651.513V116.451ZM651.513 129.097H659.325V137.534H651.513V129.097ZM651.513 141.743H659.325V150.18H651.513V141.743ZM651.513 154.389H659.325V162.826H651.513V154.389ZM651.513 167.055H659.325V175.472H651.513V167.055ZM651.513 179.701H659.325V188.118H651.513V179.701ZM651.513 192.347H659.325V200.784H651.513V192.347ZM651.513 204.993H659.325V213.43H651.513V204.993ZM651.513 217.639H659.325V226.175H651.513V217.639ZM651.513 230.285H659.325V238.723H651.513V230.285ZM651.513 242.931H659.325V251.369H651.513V242.931ZM651.513 255.577H659.325V264.015H651.513V255.577ZM639.091 116.451H646.904V124.888H639.091V116.451ZM639.091 129.097H646.904V137.534H639.091V129.097ZM639.091 141.743H646.904V150.18H639.091V141.743ZM639.091 154.389H646.904V162.826H639.091V154.389ZM639.091 167.055H646.904V175.472H639.091V167.055ZM639.091 179.701H646.904V188.118H639.091V179.701ZM639.091 192.347H646.904V200.784H639.091V192.347ZM639.091 204.993H646.904V213.43H639.091V204.993ZM639.091 217.639H646.904V226.175H639.091V217.639ZM639.091 230.285H646.904V238.723H639.091V230.285ZM639.091 242.931H646.904V251.369H639.091V242.931ZM639.091 255.577H646.904V264.015H639.091V255.577ZM626.669 116.451H634.482V124.888H626.669V116.451ZM626.669 129.097H634.482V137.534H626.669V129.097ZM626.669 141.743H634.482V150.18H626.669V141.743ZM626.669 154.389H634.482V162.826H626.669V154.389ZM626.669 167.055H634.482V175.472H626.669V167.055ZM626.669 179.701H634.482V188.118H626.669V179.701ZM626.669 192.347H634.482V200.784H626.669V192.347ZM626.669 204.993H634.482V213.43H626.669V204.993ZM626.669 217.639H634.482V226.175H626.669V217.639ZM626.669 230.285H634.482V238.723H626.669V230.285ZM626.669 242.931H634.482V251.369H626.669V242.931ZM626.669 255.577H634.482V264.015H626.669V255.577ZM617.177 116.451H623.408V263.307H617.177V116.451ZM558.78 38.8234H594.717V47.2017H558.78V38.8234ZM558.78 56.288H594.717V64.7057H558.78V56.288ZM558.78 73.7526H594.717V82.1703H558.78V73.7526ZM558.78 91.2173H594.717V99.6349H558.78V91.2173ZM558.78 108.682H594.717V117.1H558.78V108.682ZM558.78 126.166H594.717V134.564H558.78V126.166ZM558.78 143.631H594.717V152.029H558.78V143.631ZM558.78 162.846H594.717V171.244H558.78V162.846ZM594.697 177.105V183.497H535.87V177.164L594.697 177.105ZM594.697 190.341V196.674H535.87V190.4L594.697 190.341ZM594.697 203.577V209.969H535.87V203.577H594.697ZM594.697 216.813V223.205H535.87V216.813H594.697ZM594.697 230.049V236.441H535.87V230.108L594.697 230.049ZM594.697 243.285V249.776H535.87V243.384L594.697 243.285ZM523.761 104.807H532.335V116.451H523.761V104.807ZM523.761 119.066H532.335V130.709H523.761V119.066ZM523.761 133.325H532.335V144.968H523.761V133.325ZM523.761 147.564H532.335V159.306H523.761V147.564ZM523.761 161.823H532.335V173.466H523.761V161.823ZM523.761 176.082H532.335V187.725H523.761V176.082ZM523.761 190.341H532.335V201.984H523.761V190.341ZM523.761 204.6H532.335V216.341H523.761V204.6ZM523.761 218.839H532.335V230.502H523.761V218.839ZM523.761 233.098H532.335V244.741H523.761V233.098ZM523.761 247.357H532.335V259H523.761V247.357ZM510.48 104.807H519.054V116.451H510.48V104.807ZM510.48 119.066H519.054V130.709H510.48V119.066ZM510.48 133.325H519.054V144.968H510.48V133.325ZM510.48 147.564H519.054V159.306H510.48V147.564ZM510.48 161.823H519.054V173.466H510.48V161.823ZM510.48 176.082H519.054V187.725H510.48V176.082ZM510.48 190.341H519.054V201.984H510.48V190.341ZM510.48 204.6H519.054V216.341H510.48V204.6ZM510.48 218.839H519.054V230.502H510.48V218.839ZM510.48 233.098H519.054V244.741H510.48V233.098ZM510.48 247.357H519.054V259H510.48V247.357ZM497.199 104.807H505.851V116.451H497.277L497.199 104.807ZM497.199 119.066H505.851V130.709H497.277L497.199 119.066ZM497.199 133.325H505.851V144.968H497.277L497.199 133.325ZM497.199 147.564H505.851V159.306H497.277L497.199 147.564ZM497.199 161.823H505.851V173.466H497.277L497.199 161.823ZM497.199 176.082H505.851V187.725H497.277L497.199 176.082ZM497.199 190.341H505.851V201.984H497.277L497.199 190.341ZM497.199 204.6H505.851V216.341H497.277L497.199 204.6ZM497.199 218.839H505.851V230.502H497.277L497.199 218.839ZM497.199 233.098H505.851V244.741H497.277L497.199 233.098ZM497.199 247.357H505.851V259H497.277L497.199 247.357ZM483.918 104.807H492.492V116.451H483.918V104.807ZM483.918 119.066H492.492V130.709H483.918V119.066ZM483.918 133.325H492.492V144.968H483.918V133.325ZM483.918 147.564H492.492V159.306H483.918V147.564ZM483.918 161.823H492.492V173.466H483.918V161.823ZM483.918 176.082H492.492V187.725H483.918V176.082ZM483.918 190.341H492.492V201.984H483.918V190.341ZM483.918 204.6H492.492V216.341H483.918V204.6ZM483.918 218.839H492.492V230.502H483.918V218.839ZM483.918 233.098H492.492V244.741H483.918V233.098ZM483.918 247.357H492.492V259H483.918V247.357ZM470.695 104.807H479.27V116.451H470.695V104.807ZM470.695 119.066H479.27V130.709H470.695V119.066ZM470.695 133.325H479.27V144.968H470.695V133.325ZM470.695 147.505H479.27V159.306H470.695V147.505ZM470.695 161.764H479.27V173.466H470.695V161.764ZM470.695 176.023H479.27V187.666H470.695V176.023ZM470.695 190.282H479.27V201.925H470.695V190.282ZM470.695 204.541H479.27V216.341H470.695V204.541ZM470.695 218.78H479.27V230.443H470.695V218.78ZM470.695 233.039H479.27V244.682H470.695V233.039ZM470.695 247.298H479.27V258.941H470.695V247.298ZM393.158 144.221H452.141V152.619H393.08L393.158 144.221ZM393.158 158.126H452.141V166.543H393.08L393.158 158.126ZM393.158 172.03H452.141V180.448H393.08L393.158 172.03ZM393.158 185.935H452.141V194.353H393.08L393.158 185.935ZM393.158 199.86H452.141V208.258H393.08L393.158 199.86ZM393.158 213.765H452.141V222.241H393.08L393.158 213.765ZM393.158 227.669H452.141V236.087H393.08L393.158 227.669ZM393.158 241.574H452.141V249.992H393.08L393.158 241.574ZM380.013 141.605H388.529V251.742H380.013V141.605ZM324.663 116.451H330.913V263.307H324.663V116.451ZM313.96 116.451H321.772V124.888H313.96V116.451ZM313.96 129.097H321.772V137.534H313.96V129.097ZM313.96 141.743H321.772V150.18H313.96V141.743ZM313.96 154.389H321.772V162.826H313.96V154.389ZM313.96 167.055H321.772V175.472H313.96V167.055ZM313.96 179.701H321.772V188.118H313.96V179.701ZM313.96 192.347H321.772V200.784H313.96V192.347ZM313.96 204.993H321.772V213.43H313.96V204.993ZM313.96 217.639H321.772V226.175H313.96V217.639ZM313.96 230.285H321.772V238.723H313.96V230.285ZM313.96 242.931H321.772V251.369H313.96V242.931ZM313.96 255.577H321.772V264.015H313.96V255.577ZM301.558 116.451H309.37V124.888H301.558V116.451ZM301.558 129.097H309.37V137.534H301.558V129.097ZM301.558 141.743H309.37V150.18H301.558V141.743ZM301.558 154.389H309.37V162.826H301.558V154.389ZM301.558 167.055H309.37V175.472H301.558V167.055ZM301.558 179.701H309.37V188.118H301.558V179.701ZM301.558 192.347H309.37V200.784H301.558V192.347ZM301.558 204.993H309.37V213.43H301.558V204.993ZM301.558 217.639H309.37V226.175H301.558V217.639ZM301.558 230.285H309.37V238.723H301.558V230.285ZM301.558 242.931H309.37V251.369H301.558V242.931ZM301.558 255.577H309.37V264.015H301.558V255.577ZM289.058 116.451H296.87V124.888H289.058V116.451ZM289.058 129.097H296.87V137.534H289.058V129.097ZM289.058 141.743H296.87V150.18H289.058V141.743ZM289.058 154.389H296.87V162.826H289.058V154.389ZM289.058 167.055H296.87V175.472H289.058V167.055ZM289.058 179.701H296.87V188.118H289.058V179.701ZM289.058 192.347H296.87V200.784H289.058V192.347ZM289.058 204.993H296.87V213.43H289.058V204.993ZM289.058 217.639H296.87V226.175H289.058V217.639ZM289.058 230.285H296.87V238.723H289.058V230.285ZM289.058 242.931H296.87V251.369H289.058V242.931ZM289.058 255.577H296.87V264.015H289.058V255.577ZM276.656 116.451H284.468V124.888H276.656V116.451ZM276.656 129.097H284.468V137.534H276.656V129.097ZM276.656 141.743H284.468V150.18H276.656V141.743ZM276.656 154.389H284.468V162.826H276.656V154.389ZM276.656 167.055H284.468V175.472H276.656V167.055ZM276.656 179.701H284.468V188.118H276.656V179.701ZM276.656 192.347H284.468V200.784H276.656V192.347ZM276.656 204.993H284.468V213.43H276.656V204.993ZM276.656 217.639H284.468V226.175H276.656V217.639ZM276.656 230.285H284.468V238.723H276.656V230.285ZM276.656 242.931H284.468V251.369H276.656V242.931ZM276.656 255.577H284.468V264.015H276.656V255.577ZM264.234 116.451H272.046V124.888H264.234V116.451ZM264.234 129.097H272.046V137.534H264.234V129.097ZM264.234 141.743H272.046V150.18H264.234V141.743ZM264.234 154.389H272.046V162.826H264.234V154.389ZM264.234 167.055H272.046V175.472H264.234V167.055ZM264.234 179.701H272.046V188.118H264.234V179.701ZM264.234 192.347H272.046V200.784H264.234V192.347ZM264.234 204.993H272.046V213.43H264.234V204.993ZM264.234 217.639H272.046V226.175H264.234V217.639ZM264.234 230.285H272.046V238.723H264.234V230.285ZM264.234 242.931H272.046V251.369H264.234V242.931ZM264.234 255.577H272.046V264.015H264.234V255.577ZM254.781 116.451H261.031V263.307H254.781V116.451ZM196.481 38.8234H232.418V47.2017H196.481V38.8234ZM196.481 56.288H232.418V64.7057H196.481V56.288ZM196.481 73.7526H232.418V82.1703H196.481V73.7526ZM196.481 91.2173H232.418V99.6349H196.481V91.2173ZM196.481 108.682H232.418V117.1H196.481V108.682ZM196.481 126.166H232.418V134.564H196.481V126.166ZM196.481 143.631H232.418V152.029H196.481V143.631ZM196.481 162.846H232.418V171.244H196.481V162.846ZM232.418 177.105V183.497H173.61V177.164L232.418 177.105ZM232.418 190.341V196.674H173.61V190.4L232.418 190.341ZM232.418 203.577V209.969H173.61V203.577H232.418ZM232.418 216.813V223.205H173.61V216.813H232.418ZM232.418 230.049V236.441H173.61V230.108L232.418 230.049ZM232.418 243.285V249.776H173.61V243.384L232.418 243.285ZM161.384 104.807H169.919V116.451H161.384V104.807ZM161.384 119.066H169.919V130.709H161.384V119.066ZM161.384 133.325H169.919V144.968H161.384V133.325ZM161.384 147.564H169.919V159.306H161.384V147.564ZM161.384 161.823H169.919V173.466H161.384V161.823ZM161.384 176.082H169.919V187.725H161.384V176.082ZM161.384 190.341H169.919V201.984H161.384V190.341ZM161.384 204.6H169.919V216.341H161.384V204.6ZM161.384 218.839H169.919V230.502H161.384V218.839ZM161.384 233.098H169.919V244.741H161.384V233.098ZM161.384 247.357H169.919V259H161.384V247.357ZM148.103 104.807H156.677V116.451H148.103V104.807ZM148.103 119.066H156.677V130.709H148.103V119.066ZM148.103 133.325H156.677V144.968H148.103V133.325ZM148.103 147.564H156.677V159.306H148.103V147.564ZM148.103 161.823H156.677V173.466H148.103V161.823ZM148.103 176.082H156.677V187.725H148.103V176.082ZM148.103 190.341H156.677V201.984H148.103V190.341ZM148.103 204.6H156.677V216.341H148.103V204.6ZM148.103 218.839H156.677V230.502H148.103V218.839ZM148.103 233.098H156.677V244.741H148.103V233.098ZM148.103 247.357H156.677V259H148.103V247.357ZM134.763 104.807H143.338V116.451H134.763V104.807ZM134.763 119.066H143.338V130.709H134.763V119.066ZM134.763 133.325H143.338V144.968H134.763V133.325ZM134.763 147.505H143.338V159.306H134.763V147.505ZM134.763 161.764H143.338V173.466H134.763V161.764ZM134.763 176.023H143.338V187.666H134.763V176.023ZM134.763 190.282H143.338V201.925H134.763V190.282ZM134.763 204.541H143.338V216.341H134.763V204.541ZM134.763 218.78H143.338V230.443H134.763V218.78ZM134.763 233.039H143.338V244.682H134.763V233.039ZM134.763 247.298H143.338V258.941H134.763V247.298ZM121.482 104.748H130.056V116.391H121.541L121.482 104.748ZM121.482 119.007H130.056V130.65H121.541L121.482 119.007ZM121.482 133.266H130.056V144.909H121.541L121.482 133.266ZM121.482 147.505H130.056V159.306H121.541L121.482 147.505ZM121.482 161.764H130.056V173.466H121.541L121.482 161.764ZM121.482 176.023H130.056V187.666H121.541L121.482 176.023ZM121.482 190.282H130.056V201.925H121.541L121.482 190.282ZM121.482 204.541H130.056V216.341H121.541L121.482 204.541ZM121.482 218.78H130.056V230.443H121.541L121.482 218.78ZM121.482 233.039H130.056V244.682H121.541L121.482 233.039ZM121.482 247.298H130.056V258.941H121.541L121.482 247.298ZM108.201 104.748H116.775V116.391H108.26L108.201 104.748ZM108.201 119.007H116.775V130.65H108.26L108.201 119.007ZM108.201 133.266H116.775V144.909H108.26L108.201 133.266ZM108.201 147.505H116.775V159.306H108.26L108.201 147.505ZM108.201 161.764H116.775V173.466H108.26L108.201 161.764ZM108.201 176.023H116.775V187.666H108.26L108.201 176.023ZM108.201 190.282H116.775V201.925H108.26L108.201 190.282ZM108.201 204.541H116.775V216.341H108.26L108.201 204.541ZM108.201 218.78H116.775V230.443H108.26L108.201 218.78ZM108.201 233.039H116.775V244.682H108.26L108.201 233.039ZM108.201 247.298H116.775V258.941H108.26L108.201 247.298ZM30.7026 144.28H89.8423V152.678H30.7026V144.28ZM30.7026 158.185H89.8423V166.602H30.7026V158.185ZM30.7026 172.089H89.8423V180.507H30.7026V172.089ZM30.7026 185.994H89.8423V194.412H30.7026V185.994ZM30.7026 199.919H89.8423V208.317H30.7026V199.919ZM30.7026 213.824H89.8423V222.241H30.7026V213.824ZM30.7026 227.728H89.8423V236.146H30.7026V227.728ZM30.7026 241.633H89.8423V250.051H30.7026V241.633ZM17.5778 141.605H26.1714V251.742H17.5778V141.605Z" fill="#B8B7C1"/>
<path d="M511.418 289.681H127.381C126.334 289.753 125.354 290.223 124.638 290.995C123.923 291.767 123.524 292.784 123.524 293.84C123.524 294.897 123.923 295.913 124.638 296.686C125.354 297.458 126.334 297.927 127.381 298H511.418C512.464 297.927 513.444 297.458 514.16 296.686C514.876 295.913 515.274 294.897 515.274 293.84C515.274 292.784 514.876 291.767 514.16 290.995C513.444 290.223 512.464 289.753 511.418 289.681Z" fill="#A7A8B3"/>
<path d="M337.885 255.676C337.885 261.857 339.705 267.899 343.115 273.038C346.526 278.177 351.372 282.183 357.043 284.548C362.714 286.914 368.954 287.533 374.974 286.327C380.994 285.121 386.524 282.145 390.865 277.774C395.205 273.403 398.161 267.835 399.358 261.773C400.556 255.71 399.941 249.427 397.592 243.716C395.243 238.006 391.265 233.125 386.162 229.691C381.058 226.257 375.058 224.424 368.92 224.424C364.844 224.422 360.807 225.228 357.04 226.798C353.274 228.368 349.852 230.669 346.969 233.572C344.087 236.474 341.801 239.921 340.242 243.713C338.684 247.506 337.883 251.571 337.885 255.676Z" fill="#13121A"/>
<path d="M337.299 242.813H375.287C389.331 242.813 400.716 231.349 400.716 217.206V136.944C400.716 122.801 389.331 111.337 375.287 111.337H337.299C323.255 111.337 311.87 122.801 311.87 136.944V217.206C311.87 231.349 323.255 242.813 337.299 242.813Z" fill="#AB1A3A"/>
<path d="M250.152 248.753C252.114 253.499 252.883 258.659 252.39 263.776C251.896 268.893 250.156 273.808 247.324 278.085C244.491 282.363 240.654 285.87 236.153 288.295C231.651 290.721 226.625 291.99 221.52 291.99C216.414 291.99 211.388 290.721 206.887 288.295C202.385 285.87 198.548 282.363 195.716 278.085C192.883 273.808 191.143 268.893 190.65 263.776C190.156 258.659 190.925 253.499 192.887 248.753H250.152Z" fill="#13121A"/>
<path d="M142.576 260.612H212.887C215.268 260.607 217.55 259.652 219.234 257.957C220.918 256.261 221.866 253.963 221.871 251.565C221.866 249.166 220.919 246.866 219.235 245.167C217.552 243.468 215.27 242.509 212.887 242.499H142.576C140.191 242.509 137.907 243.468 136.221 245.166C134.534 246.864 133.582 249.164 133.572 251.565C133.582 253.965 134.535 256.263 136.222 257.958C137.909 259.653 140.193 260.607 142.576 260.612Z" fill="#41414D"/>
<path d="M386.42 111.278H437.2C449.797 111.278 455.168 122.724 458.684 126.717L500.324 181.786V181.923C501.678 183.716 502.412 185.906 502.414 188.158V248.104C502.403 250.871 501.307 253.521 499.365 255.477C497.422 257.433 494.79 258.537 492.043 258.547H386.478C383.733 258.537 381.103 257.433 379.163 255.476C377.223 253.519 376.132 250.869 376.127 248.104V121.643C376.127 118.894 377.211 116.258 379.141 114.314C381.072 112.37 383.69 111.278 386.42 111.278Z" fill="#E02142"/>
<path d="M468.86 242.479H233.297V258.665H468.86V242.479Z" fill="#13121A"/>
<path d="M247.691 260.809C247.691 266.99 249.511 273.032 252.922 278.171C256.332 283.311 261.179 287.316 266.85 289.682C272.52 292.047 278.76 292.666 284.78 291.46C290.801 290.254 296.33 287.278 300.671 282.907C305.011 278.537 307.967 272.968 309.164 266.906C310.362 260.844 309.747 254.56 307.398 248.85C305.049 243.139 301.071 238.258 295.968 234.824C290.864 231.39 284.864 229.558 278.726 229.558C274.65 229.555 270.613 230.362 266.846 231.931C263.08 233.501 259.658 235.803 256.775 238.705C253.893 241.608 251.607 245.054 250.048 248.847C248.49 252.639 247.689 256.704 247.691 260.809Z" fill="#41414D"/>
<path d="M260.855 260.809C260.859 264.367 261.91 267.845 263.876 270.802C265.842 273.758 268.635 276.062 271.901 277.421C275.166 278.78 278.759 279.133 282.224 278.437C285.69 277.74 288.872 276.025 291.369 273.507C293.867 270.99 295.567 267.783 296.255 264.293C296.943 260.803 296.588 257.185 295.235 253.898C293.881 250.611 291.591 247.802 288.652 245.825C285.714 243.849 282.26 242.794 278.726 242.794C276.377 242.794 274.052 243.26 271.883 244.165C269.713 245.071 267.742 246.398 266.082 248.071C264.423 249.745 263.107 251.731 262.21 253.916C261.313 256.102 260.853 258.444 260.855 260.809Z" fill="#13121A"/>
<path d="M278.726 267.378C282.329 267.378 285.249 264.437 285.249 260.809C285.249 257.181 282.329 254.24 278.726 254.24C275.123 254.24 272.203 257.181 272.203 260.809C272.203 264.437 275.123 267.378 278.726 267.378Z" fill="#13121A"/>
<path d="M506.085 218.917L504.132 220.255C502.003 221.749 498.82 220.451 498.82 218.091V196.87C498.911 196.306 499.144 195.775 499.497 195.328C499.85 194.88 500.311 194.532 500.836 194.315C501.361 194.098 501.933 194.02 502.496 194.088C503.059 194.157 503.596 194.37 504.054 194.707L506.007 195.907C506.396 196.139 506.719 196.466 506.948 196.858C507.177 197.25 507.303 197.694 507.316 198.149V216.833C507.292 217.254 507.167 217.663 506.953 218.026C506.739 218.389 506.441 218.694 506.085 218.917Z" fill="#13121A"/>
<path d="M395.15 260.809C395.15 266.991 396.97 273.034 400.381 278.174C403.792 283.313 408.641 287.319 414.312 289.684C419.984 292.048 426.226 292.666 432.246 291.459C438.267 290.251 443.797 287.273 448.136 282.9C452.476 278.528 455.43 272.957 456.625 266.894C457.82 260.83 457.203 254.546 454.851 248.836C452.499 243.126 448.518 238.246 443.412 234.815C438.306 231.383 432.304 229.554 426.165 229.558C422.09 229.558 418.056 230.366 414.291 231.937C410.527 233.508 407.107 235.81 404.227 238.712C401.347 241.614 399.063 245.06 397.505 248.851C395.948 252.643 395.147 256.706 395.15 260.809Z" fill="#41414D"/>
<path d="M426.165 277.369C435.247 277.369 442.61 269.955 442.61 260.809C442.61 251.663 435.247 244.249 426.165 244.249C417.083 244.249 409.72 251.663 409.72 260.809C409.72 269.955 417.083 277.369 426.165 277.369Z" fill="#13121A"/>
<path d="M422.552 125.753H451.575C451.861 125.76 452.143 125.831 452.4 125.96C452.656 126.089 452.881 126.274 453.059 126.501L489.367 175.04C489.541 175.325 489.64 175.65 489.655 175.984C489.67 176.318 489.599 176.651 489.451 176.95C489.302 177.249 489.08 177.506 488.806 177.694C488.531 177.883 488.214 177.998 487.883 178.029H422.552C421.322 178.013 420.149 177.508 419.289 176.623C418.429 175.739 417.952 174.547 417.962 173.309V130.552C417.946 129.932 418.053 129.316 418.276 128.738C418.499 128.16 418.834 127.633 419.261 127.187C419.688 126.74 420.199 126.384 420.763 126.137C421.328 125.891 421.936 125.761 422.552 125.753Z" fill="#DFDEE3"/>
<path d="M420.989 176.279V133.502C420.974 132.89 421.078 132.281 421.296 131.709C421.515 131.138 421.843 130.615 422.262 130.171C422.681 129.727 423.182 129.371 423.738 129.123C424.294 128.874 424.893 128.738 425.501 128.723H454.797L452.571 125.753H422.552C421.936 125.761 421.328 125.891 420.763 126.137C420.199 126.384 419.688 126.74 419.261 127.187C418.834 127.633 418.499 128.16 418.276 128.738C418.053 129.316 417.946 129.932 417.962 130.552V173.309C417.946 174.321 418.249 175.312 418.829 176.139C419.408 176.966 420.233 177.586 421.185 177.911C421.03 177.381 420.964 176.83 420.989 176.279Z" fill="#A7A8B3"/>
<path d="M419.661 260.809C419.661 262.109 420.044 263.38 420.762 264.46C421.48 265.541 422.5 266.383 423.693 266.88C424.886 267.376 426.198 267.505 427.464 267.25C428.73 266.995 429.893 266.367 430.804 265.447C431.716 264.526 432.335 263.354 432.585 262.078C432.834 260.803 432.702 259.481 432.206 258.281C431.709 257.081 430.87 256.057 429.794 255.337C428.719 254.618 427.456 254.236 426.165 254.24C425.309 254.24 424.462 254.41 423.672 254.74C422.881 255.071 422.163 255.555 421.559 256.165C420.955 256.775 420.476 257.5 420.151 258.297C419.825 259.093 419.659 259.947 419.661 260.809Z" fill="#13121A"/>
<path d="M430.657 156.67C430.915 156.669 431.171 156.616 431.409 156.515C431.647 156.414 431.863 156.266 432.044 156.08L455.481 132.479L454.524 131.181L453.098 129.215L429.27 153.287C429.087 153.47 428.942 153.688 428.843 153.928C428.744 154.167 428.693 154.424 428.693 154.684C428.693 154.943 428.744 155.201 428.843 155.44C428.942 155.68 429.087 155.897 429.27 156.08C429.451 156.266 429.667 156.414 429.905 156.515C430.143 156.616 430.399 156.669 430.657 156.67ZM446.946 150.436C446.689 150.434 446.434 150.484 446.196 150.582C445.958 150.68 445.742 150.824 445.559 151.006L422.122 174.607C422.485 174.975 422.918 175.267 423.394 175.466C423.87 175.665 424.38 175.768 424.895 175.767H426.517L448.333 153.799C448.608 153.524 448.796 153.172 448.872 152.789C448.948 152.406 448.91 152.009 448.761 151.648C448.612 151.287 448.36 150.979 448.037 150.763C447.714 150.548 447.334 150.433 446.946 150.436ZM471.574 154.212L453.997 171.912C453.813 172.095 453.668 172.313 453.569 172.552C453.47 172.792 453.419 173.049 453.419 173.309C453.419 173.569 453.47 173.826 453.569 174.065C453.668 174.305 453.813 174.522 453.997 174.705C454.179 174.888 454.395 175.032 454.633 175.13C454.871 175.227 455.126 175.277 455.383 175.276C455.64 175.277 455.895 175.227 456.133 175.13C456.371 175.032 456.587 174.888 456.77 174.705L473.957 157.398L471.574 154.212ZM455.071 161.272C455.329 161.271 455.585 161.219 455.823 161.117C456.061 161.016 456.277 160.868 456.457 160.682L467.903 149.157L467.004 147.938L465.52 145.971L453.684 157.89C453.501 158.072 453.356 158.29 453.257 158.53C453.157 158.769 453.106 159.026 453.106 159.286C453.106 159.546 453.157 159.803 453.257 160.042C453.356 160.282 453.501 160.5 453.684 160.682C453.865 160.868 454.081 161.016 454.319 161.117C454.557 161.219 454.812 161.271 455.071 161.272Z" fill="#F6F6F8"/>
<path d="M485.793 222.025H438.919C438.401 222.025 437.904 221.818 437.538 221.449C437.171 221.08 436.965 220.58 436.965 220.058C436.965 219.537 437.171 219.036 437.538 218.668C437.904 218.299 438.401 218.092 438.919 218.092H485.793C486.311 218.092 486.808 218.299 487.174 218.668C487.54 219.036 487.746 219.537 487.746 220.058C487.746 220.58 487.54 221.08 487.174 221.449C486.808 221.818 486.311 222.025 485.793 222.025Z" fill="#240000"/>
<path d="M314.331 260.691C314.322 254.304 312.616 248.036 309.389 242.538H395.462C392.238 248.039 390.526 254.304 390.501 260.691H314.331Z" fill="#41414D"/>
<path d="M208.708 242.538H248.043C244.81 248.035 243.097 254.303 243.082 260.691H208.708C206.319 260.681 204.032 259.719 202.345 258.017C200.659 256.315 199.709 254.01 199.704 251.605C199.709 249.202 200.659 246.899 202.347 245.199C204.034 243.5 206.321 242.543 208.708 242.538Z" fill="#41414D"/>
<path d="M456.868 242.538H496.476C498.861 242.548 501.145 243.507 502.832 245.205C504.518 246.903 505.47 249.203 505.48 251.605C505.475 254.01 504.525 256.315 502.838 258.017C501.152 259.719 498.864 260.681 496.476 260.691H461.828C461.813 254.303 460.1 248.035 456.868 242.538Z" fill="#41414D"/>
<path d="M506.847 258.41C506.922 259.819 506.44 261.201 505.507 262.255C504.575 263.309 503.266 263.948 501.867 264.034H476.926C475.527 263.948 474.218 263.309 473.285 262.255C472.352 261.201 471.871 259.819 471.945 258.41V251.742C471.871 250.333 472.352 248.95 473.285 247.897C474.218 246.843 475.527 246.204 476.926 246.117H501.945C503.344 246.204 504.653 246.843 505.586 247.897C506.519 248.95 507 250.333 506.925 251.742L506.847 258.41Z" fill="#13121A"/>
<path d="M501.945 258.567H476.926C475.527 258.481 474.218 257.841 473.285 256.788C472.352 255.734 471.871 254.352 471.945 252.942V258.41C471.871 259.819 472.352 261.201 473.285 262.255C474.218 263.309 475.527 263.948 476.926 264.035H501.945C503.344 263.948 504.653 263.309 505.586 262.255C506.519 261.201 507 259.819 506.925 258.41V252.942C507 254.352 506.519 255.734 505.586 256.788C504.653 257.841 503.344 258.481 501.945 258.567Z" fill="#13121A"/>
<path d="M393.568 178.245H397.396C404.202 178.245 409.72 172.689 409.72 165.835V138.065C409.72 131.211 404.202 125.655 397.396 125.655H393.568C386.761 125.655 381.244 131.211 381.244 138.065V165.835C381.244 172.689 386.761 178.245 393.568 178.245Z" fill="#DFDEE3"/>
<path d="M433.938 196.202H446.36C446.842 196.202 447.304 196.009 447.644 195.666C447.985 195.323 448.176 194.858 448.176 194.373C448.176 194.132 448.129 193.894 448.038 193.673C447.947 193.451 447.813 193.249 447.644 193.079C447.476 192.909 447.275 192.775 447.055 192.683C446.835 192.591 446.598 192.543 446.36 192.543H433.938C433.7 192.543 433.463 192.591 433.243 192.683C433.023 192.775 432.822 192.909 432.654 193.079C432.485 193.249 432.351 193.451 432.26 193.673C432.169 193.894 432.122 194.132 432.122 194.373C432.122 194.613 432.169 194.851 432.26 195.072C432.351 195.294 432.485 195.496 432.654 195.666C432.822 195.836 433.023 195.97 433.243 196.062C433.463 196.154 433.7 196.202 433.938 196.202Z" fill="#240000"/>
<path d="M402.181 152.422C402.364 152.24 402.58 152.096 402.818 151.998C403.056 151.9 403.311 151.85 403.568 151.852C403.825 151.85 404.08 151.9 404.318 151.998C404.556 152.096 404.772 152.24 404.954 152.422C405.14 152.605 405.288 152.824 405.389 153.066C405.49 153.307 405.542 153.566 405.542 153.828C405.542 154.09 405.49 154.35 405.389 154.591C405.288 154.833 405.14 155.051 404.954 155.235L383.06 177.262C382.5 176.829 382.046 176.273 381.735 175.635C381.423 174.997 381.262 174.295 381.263 173.584L402.181 152.422ZM387.279 158.106C387.021 158.105 386.765 158.052 386.527 157.951C386.289 157.85 386.073 157.702 385.892 157.516C385.709 157.333 385.564 157.116 385.465 156.876C385.366 156.636 385.315 156.379 385.315 156.12C385.315 155.86 385.366 155.603 385.465 155.363C385.564 155.124 385.709 154.906 385.892 154.723L409.661 130.788V136.216L388.666 157.516C388.485 157.702 388.269 157.85 388.031 157.951C387.793 158.052 387.537 158.105 387.279 158.106Z" fill="#F6F6F8"/>
<path d="M385.892 125.655H405.091C405.996 125.656 406.88 125.922 407.636 126.422C408.393 126.921 408.988 127.632 409.349 128.467C408.768 128.216 408.145 128.083 407.513 128.074H388.295C387.065 128.079 385.888 128.575 385.02 129.452C384.153 130.329 383.666 131.517 383.666 132.755V176.023C383.663 176.66 383.796 177.291 384.056 177.872C383.227 177.514 382.52 176.918 382.024 176.16C381.528 175.401 381.263 174.512 381.263 173.604V130.336C381.263 129.098 381.75 127.91 382.618 127.033C383.486 126.155 384.663 125.66 385.892 125.655Z" fill="#A7A8B3"/>
<path d="M267.984 83.1733H146.619C140.557 83.1733 135.642 88.122 135.642 94.2264V231.76C135.642 237.865 140.557 242.813 146.619 242.813H267.984C274.046 242.813 278.96 237.865 278.96 231.76V94.2264C278.96 88.122 274.046 83.1733 267.984 83.1733Z" fill="#D2C4B2"/>
<path d="M292.983 83.1733H171.618C165.556 83.1733 160.642 88.122 160.642 94.2264V231.76C160.642 237.865 165.556 242.813 171.618 242.813H292.983C299.046 242.813 303.96 237.865 303.96 231.76V94.2264C303.96 88.122 299.046 83.1733 292.983 83.1733Z" fill="#CCBDA9"/>
<path d="M327.749 83.1733H197.067C191.005 83.1733 186.091 88.122 186.091 94.2264V231.76C186.091 237.865 191.005 242.813 197.067 242.813H327.749C333.811 242.813 338.725 237.865 338.725 231.76V94.2264C338.725 88.122 333.811 83.1733 327.749 83.1733Z" fill="#D2C4B2"/>
<path d="M358.393 83.1733H227.848C221.786 83.1733 216.871 88.122 216.871 94.2264V231.76C216.871 237.865 221.786 242.813 227.848 242.813H358.393C364.455 242.813 369.369 237.865 369.369 231.76V94.2264C369.369 88.122 364.455 83.1733 358.393 83.1733Z" fill="#D9CDBF"/>
<path d="M317.553 83.1733H263.648V242.813H317.553V83.1733Z" fill="#CFC0AD"/>
<path d="M359.135 201.61H356.557V227.551H359.135V201.61Z" fill="#BFAC94"/>
<path d="M351.186 201.61H349.037V227.551H351.186V201.61Z" fill="#BFAC94"/>
<path d="M355.561 201.61H354.623V227.551H355.561V201.61Z" fill="#BFAC94"/>
<path d="M353.647 201.61H352.377V227.551H353.647V201.61Z" fill="#BFAC94"/>
<path d="M348.119 201.61H347.182V227.551H348.119V201.61Z" fill="#BFAC94"/>
<path d="M346.205 201.61H344.936V227.551H346.205V201.61Z" fill="#BFAC94"/>
<path d="M344.037 201.61H341.459V227.551H344.037V201.61Z" fill="#BFAC94"/>
<path d="M336.088 201.61H333.94V227.551H336.088V201.61Z" fill="#BFAC94"/>
<path d="M340.463 201.61H339.526V227.551H340.463V201.61Z" fill="#BFAC94"/>
<path d="M338.569 201.61H337.28V227.551H338.569V201.61Z" fill="#BFAC94"/>
<path d="M333.022 201.61H332.084V227.551H333.022V201.61Z" fill="#BFAC94"/>
<path d="M331.108 201.61H329.838V227.551H331.108V201.61Z" fill="#BFAC94"/>
</svg>
