<svg width="1415" height="594" viewBox="0 0 1415 594" fill="none" xmlns="http://www.w3.org/2000/svg">
<path fill-rule="evenodd" clip-rule="evenodd" d="M1409.6 522.675H1415V573.666H871.569C872.203 574.836 872.545 576.182 872.545 577.565C872.545 579.487 871.886 581.336 870.701 582.74C869.516 584.145 867.893 584.999 866.161 585.131H230.384C228.652 584.999 227.029 584.145 225.844 582.74C224.659 581.336 224 579.487 224 577.565C224 576.182 224.342 574.836 224.976 573.666H0V522.675H3.19918L3.1221 521.549C2.94571 518.97 2.74013 515.964 2.50538 512.608H22.5099V262.63H189.754V512.608H202.974V190.309H215.848V171.294H240.324V139.55H308.701V171.294H322.346V190.309H342.505V337.496H376.655V0L470.048 60.9035V512.724H486.776V211.87H509.903V182.711H526.669V139.55H564.751V182.711H595.008V171.139H627.463V182.711H640.915V211.755H664.427V512.608H737.661V262.63H904.905V512.608H918.087V190.309H931.038V171.294H955.475V139.55H1023.81V171.294H1037.46V190.309H1057.66V337.496H1091.77V60.9035H1184.93V512.724H1201.66V211.87H1224.78V182.711H1241.59V139.55H1279.67V182.711H1309.93V171.139H1342.42V182.711H1355.87V211.755H1379.39V512.608H1409.6V522.675ZM1368.32 228.379H1355.87L1356.03 516.388H1368.32V228.379ZM1350.17 228.379H1334.75V244.926H1350.17V228.379ZM1350.17 253.18H1334.75V269.727H1350.17V253.18ZM1350.17 277.981H1334.75V294.528H1350.17V277.981ZM1350.17 302.782H1334.75V319.329H1350.17V302.782ZM1350.17 327.622H1334.75V344.13H1350.17V327.622ZM1350.17 352.423H1334.75V368.931H1350.17V352.423ZM1350.17 377.224H1334.75V393.771H1350.17V377.224ZM1350.17 402.025H1334.75V418.572H1350.17V402.025ZM1350.17 426.826H1334.75V443.566H1350.17V426.826ZM1350.17 451.627H1334.75V468.174H1350.17V451.627ZM1350.17 476.428H1334.75V492.975H1350.17V476.428ZM1350.17 501.23H1334.75V517.777H1350.17V501.23ZM1325.65 228.379H1310.24V244.926H1325.65V228.379ZM1325.65 253.18H1310.24V269.727H1325.65V253.18ZM1325.65 277.981H1310.24V294.528H1325.65V277.981ZM1325.65 302.782H1310.24V319.329H1325.65V302.782ZM1325.65 327.622H1310.24V344.13H1325.65V327.622ZM1325.65 352.423H1310.24V368.931H1325.65V352.423ZM1325.65 377.224H1310.24V393.771H1325.65V377.224ZM1325.65 402.025H1310.24V418.572H1325.65V402.025ZM1325.65 426.826H1310.24V443.566H1325.65V426.826ZM1325.65 451.627H1310.24V468.174H1325.65V451.627ZM1325.65 476.428H1310.24V492.975H1325.65V476.428ZM1325.65 501.23H1310.24V517.777H1325.65V501.23ZM1301.18 228.379H1285.76V244.926H1301.18V228.379ZM1301.18 253.18H1285.76V269.727H1301.18V253.18ZM1301.18 277.981H1285.76V294.528H1301.18V277.981ZM1301.18 302.782H1285.76V319.329H1301.18V302.782ZM1301.18 327.622H1285.76V344.13H1301.18V327.622ZM1301.18 352.423H1285.76V368.931H1301.18V352.423ZM1301.18 377.224H1285.76V393.771H1301.18V377.224ZM1301.18 402.025H1285.76V418.572H1301.18V402.025ZM1301.18 426.826H1285.76V443.566H1301.18V426.826ZM1301.18 451.627H1285.76V468.174H1301.18V451.627ZM1301.18 476.428H1285.76V492.975H1301.18V476.428ZM1301.18 501.23H1285.76V517.777H1301.18V501.23ZM1276.66 228.379H1261.25V244.926H1276.66V228.379ZM1276.66 253.18H1261.25V269.727H1276.66V253.18ZM1276.66 277.981H1261.25V294.528H1276.66V277.981ZM1276.66 302.782H1261.25V319.329H1276.66V302.782ZM1276.66 327.622H1261.25V344.13H1276.66V327.622ZM1276.66 352.423H1261.25V368.931H1276.66V352.423ZM1276.66 377.224H1261.25V393.771H1276.66V377.224ZM1276.66 402.025H1261.25V418.572H1276.66V402.025ZM1276.66 426.826H1261.25V443.566H1276.66V426.826ZM1276.66 451.627H1261.25V468.174H1276.66V451.627ZM1276.66 476.428H1261.25V492.975H1276.66V476.428ZM1276.66 501.23H1261.25V517.777H1276.66V501.23ZM1252.15 228.379H1236.73V244.926H1252.15V228.379ZM1252.15 253.18H1236.73V269.727H1252.15V253.18ZM1252.15 277.981H1236.73V294.528H1252.15V277.981ZM1252.15 302.782H1236.73V319.329H1252.15V302.782ZM1252.15 327.622H1236.73V344.13H1252.15V327.622ZM1252.15 352.423H1236.73V368.931H1252.15V352.423ZM1252.15 377.224H1236.73V393.771H1252.15V377.224ZM1252.15 402.025H1236.73V418.572H1252.15V402.025ZM1252.15 426.826H1236.73V443.566H1252.15V426.826ZM1252.15 451.627H1236.73V468.174H1252.15V451.627ZM1252.15 476.428H1236.73V492.975H1252.15V476.428ZM1252.15 501.23H1236.73V517.777H1252.15V501.23ZM1230.3 228.379H1218V516.388H1230.3V228.379ZM1173.67 76.1391H1102.75V92.5703H1173.67V76.1391ZM1173.67 110.39H1102.75V126.898H1173.67V110.39ZM1173.67 144.641H1102.75V161.149H1173.67V144.641ZM1173.67 178.892H1102.75V195.4H1173.67V178.892ZM1173.67 213.143H1102.75V229.652H1173.67V213.143ZM1173.67 247.433H1102.75V263.902H1173.67V247.433ZM1173.67 281.684H1102.75V298.154H1173.67V281.684ZM1173.67 319.368H1102.75V335.837H1173.67V319.368ZM1173.64 359.867V347.332L1057.54 347.447V359.867H1173.64ZM1173.64 385.71V373.29L1057.54 373.405V385.71H1173.64ZM1173.64 411.784V399.248H1057.54V411.784H1173.64ZM1173.64 437.742V425.206H1057.54V437.742H1173.64ZM1173.64 463.7V451.165L1057.54 451.28V463.7H1173.64ZM1173.64 489.851V477.123L1057.54 477.316V489.851H1173.64ZM1050.56 205.545H1033.64V228.379H1050.56V205.545ZM1050.56 233.509H1033.64V256.343H1050.56V233.509ZM1050.56 261.473H1033.64V284.307H1050.56V261.473ZM1050.56 289.398H1033.64V312.425H1050.56V289.398ZM1050.56 317.362H1033.64V340.196H1050.56V317.362ZM1050.56 345.326H1033.64V368.16H1050.56V345.326ZM1050.56 373.29H1033.64V396.124H1050.56V373.29ZM1050.56 401.254H1033.64V424.281H1050.56V401.254ZM1050.56 429.179H1033.64V452.052H1050.56V429.179ZM1050.56 457.143H1033.64V479.977H1050.56V457.143ZM1050.56 485.107H1033.64V507.941H1050.56V485.107ZM1024.35 205.545H1007.43V228.379H1024.35V205.545ZM1024.35 233.509H1007.43V256.343H1024.35V233.509ZM1024.35 261.473H1007.43V284.307H1024.35V261.473ZM1024.35 289.398H1007.43V312.425H1024.35V289.398ZM1024.35 317.362H1007.43V340.196H1024.35V317.362ZM1024.35 345.326H1007.43V368.16H1024.35V345.326ZM1024.35 373.29H1007.43V396.124H1024.35V373.29ZM1024.35 401.254H1007.43V424.281H1024.35V401.254ZM1024.35 429.179H1007.43V452.052H1024.35V429.179ZM1024.35 457.143H1007.43V479.977H1024.35V457.143ZM1024.35 485.107H1007.43V507.941H1024.35V485.107ZM998.298 205.545H981.222L981.377 228.379H998.298V205.545ZM998.298 233.509H981.222L981.377 256.343H998.298V233.509ZM998.298 261.473H981.222L981.377 284.307H998.298V261.473ZM998.298 289.398H981.222L981.377 312.425H998.298V289.398ZM998.298 317.362H981.222L981.377 340.196H998.298V317.362ZM998.298 345.326H981.222L981.377 368.16H998.298V345.326ZM998.298 373.29H981.222L981.377 396.124H998.298V373.29ZM998.298 401.254H981.222L981.377 424.281H998.298V401.254ZM998.298 429.179H981.222L981.377 452.052H998.298V429.179ZM998.298 457.143H981.222L981.377 479.977H998.298V457.143ZM998.298 485.107H981.222L981.377 507.941H998.298V485.107ZM971.933 205.545H955.012V228.379H971.933V205.545ZM971.933 233.509H955.012V256.343H971.933V233.509ZM971.933 261.473H955.012V284.307H971.933V261.473ZM971.933 289.398H955.012V312.425H971.933V289.398ZM971.933 317.362H955.012V340.196H971.933V317.362ZM971.933 345.326H955.012V368.16H971.933V345.326ZM971.933 373.29H955.012V396.124H971.933V373.29ZM971.933 401.254H955.012V424.281H971.933V401.254ZM971.933 429.179H955.012V452.052H971.933V429.179ZM971.933 457.143H955.012V479.977H971.933V457.143ZM971.933 485.107H955.012V507.941H971.933V485.107ZM945.839 205.545H928.918V228.379H945.839V205.545ZM945.839 233.509H928.918V256.343H945.839V233.509ZM945.839 261.473H928.918V284.307H945.839V261.473ZM945.839 289.282H928.918V312.425H945.839V289.282ZM945.839 317.246H928.918V340.196H945.839V317.246ZM945.839 345.21H928.918V368.044H945.839V345.21ZM945.839 373.174H928.918V396.008H945.839V373.174ZM945.839 401.138H928.918V424.281H945.839V401.138ZM945.839 429.063H928.918V451.936H945.839V429.063ZM945.839 457.027H928.918V479.861H945.839V457.027ZM945.839 484.991H928.918V507.825H945.839V484.991ZM892.301 282.841H775.897L775.743 299.311H892.301V282.841ZM892.301 310.111H775.897L775.743 326.619H892.301V310.111ZM892.301 337.38H775.897L775.743 353.889H892.301V337.38ZM892.301 364.65H775.897L775.743 381.158H892.301V364.65ZM892.301 391.958H775.897L775.743 408.428H892.301V391.958ZM892.301 419.228H775.897L775.743 435.852H892.301V419.228ZM892.301 446.497H775.897L775.743 463.006H892.301V446.497ZM892.301 473.767H775.897L775.743 490.275H892.301V473.767ZM766.762 277.711H749.957V493.708H766.762V277.711ZM653.056 228.379H640.722V516.388H653.056V228.379ZM635.017 228.379H619.6V244.926H635.017V228.379ZM635.017 253.18H619.6V269.727H635.017V253.18ZM635.017 277.981H619.6V294.528H635.017V277.981ZM635.017 302.782H619.6V319.329H635.017V302.782ZM635.017 327.622H619.6V344.13H635.017V327.622ZM635.017 352.423H619.6V368.931H635.017V352.423ZM635.017 377.224H619.6V393.771H635.017V377.224ZM635.017 402.025H619.6V418.572H635.017V402.025ZM635.017 426.826H619.6V443.566H635.017V426.826ZM635.017 451.627H619.6V468.174H635.017V451.627ZM635.017 476.428H619.6V492.975H635.017V476.428ZM635.017 501.23H619.6V517.777H635.017V501.23ZM610.542 228.379H595.124V244.926H610.542V228.379ZM610.542 253.18H595.124V269.727H610.542V253.18ZM610.542 277.981H595.124V294.528H610.542V277.981ZM610.542 302.782H595.124V319.329H610.542V302.782ZM610.542 327.622H595.124V344.13H610.542V327.622ZM610.542 352.423H595.124V368.931H610.542V352.423ZM610.542 377.224H595.124V393.771H610.542V377.224ZM610.542 402.025H595.124V418.572H610.542V402.025ZM610.542 426.826H595.124V443.566H610.542V426.826ZM610.542 451.627H595.124V468.174H610.542V451.627ZM610.542 476.428H595.124V492.975H610.542V476.428ZM610.542 501.23H595.124V517.777H610.542V501.23ZM585.873 228.379H570.456V244.926H585.873V228.379ZM585.873 253.18H570.456V269.727H585.873V253.18ZM585.873 277.981H570.456V294.528H585.873V277.981ZM585.873 302.782H570.456V319.329H585.873V302.782ZM585.873 327.622H570.456V344.13H585.873V327.622ZM585.873 352.423H570.456V368.931H585.873V352.423ZM585.873 377.224H570.456V393.771H585.873V377.224ZM585.873 402.025H570.456V418.572H585.873V402.025ZM585.873 426.826H570.456V443.566H585.873V426.826ZM585.873 451.627H570.456V468.174H585.873V451.627ZM585.873 476.428H570.456V492.975H585.873V476.428ZM585.873 501.23H570.456V517.777H585.873V501.23ZM561.398 228.379H545.98V244.926H561.398V228.379ZM561.398 253.18H545.98V269.727H561.398V253.18ZM561.398 277.981H545.98V294.528H561.398V277.981ZM561.398 302.782H545.98V319.329H561.398V302.782ZM561.398 327.622H545.98V344.13H561.398V327.622ZM561.398 352.423H545.98V368.931H561.398V352.423ZM561.398 377.224H545.98V393.771H561.398V377.224ZM561.398 402.025H545.98V418.572H561.398V402.025ZM561.398 426.826H545.98V443.566H561.398V426.826ZM561.398 451.627H545.98V468.174H561.398V451.627ZM561.398 476.428H545.98V492.975H561.398V476.428ZM561.398 501.23H545.98V517.777H561.398V501.23ZM536.884 228.379H521.466V244.926H536.884V228.379ZM536.884 253.18H521.466V269.727H536.884V253.18ZM536.884 277.981H521.466V294.528H536.884V277.981ZM536.884 302.782H521.466V319.329H536.884V302.782ZM536.884 327.622H521.466V344.13H536.884V327.622ZM536.884 352.423H521.466V368.931H536.884V352.423ZM536.884 377.224H521.466V393.771H536.884V377.224ZM536.884 402.025H521.466V418.572H536.884V402.025ZM536.884 426.826H521.466V443.566H536.884V426.826ZM536.884 451.627H521.466V468.174H536.884V451.627ZM536.884 476.428H521.466V492.975H536.884V476.428ZM536.884 501.23H521.466V517.777H536.884V501.23ZM515.145 228.379H502.81V516.388H515.145V228.379ZM458.677 76.1391H387.756V92.5703H458.677V76.1391ZM458.677 110.39H387.756V126.898H458.677V110.39ZM458.677 144.641H387.756V161.149H458.677V144.641ZM458.677 178.892H387.756V195.4H458.677V178.892ZM458.677 213.143H387.756V229.652H458.677V213.143ZM458.677 247.433H387.756V263.902H458.677V247.433ZM458.677 281.684H387.756V298.154H458.677V281.684ZM458.677 319.368H387.756V335.837H458.677V319.368ZM458.677 359.867V347.332L342.62 347.447V359.867H458.677ZM458.677 385.71V373.29L342.62 373.405V385.71H458.677ZM458.677 411.784V399.248H342.62V411.784H458.677ZM458.677 437.742V425.206H342.62V437.742H458.677ZM458.677 463.7V451.165L342.62 451.28V463.7H458.677ZM458.677 489.851V477.123L342.62 477.316V489.851H458.677ZM335.335 205.545H318.492V228.379H335.335V205.545ZM335.335 233.509H318.492V256.343H335.335V233.509ZM335.335 261.473H318.492V284.307H335.335V261.473ZM335.335 289.398H318.492V312.425H335.335V289.398ZM335.335 317.362H318.492V340.196H335.335V317.362ZM335.335 345.326H318.492V368.16H335.335V345.326ZM335.335 373.29H318.492V396.124H335.335V373.29ZM335.335 401.254H318.492V424.281H335.335V401.254ZM335.335 429.179H318.492V452.052H335.335V429.179ZM335.335 457.143H318.492V479.977H335.335V457.143ZM335.335 485.107H318.492V507.941H335.335V485.107ZM309.202 205.545H292.281V228.379H309.202V205.545ZM309.202 233.509H292.281V256.343H309.202V233.509ZM309.202 261.473H292.281V284.307H309.202V261.473ZM309.202 289.398H292.281V312.425H309.202V289.398ZM309.202 317.362H292.281V340.196H309.202V317.362ZM309.202 345.326H292.281V368.16H309.202V345.326ZM309.202 373.29H292.281V396.124H309.202V373.29ZM309.202 401.254H292.281V424.281H309.202V401.254ZM309.202 429.179H292.281V452.052H309.202V429.179ZM309.202 457.143H292.281V479.977H309.202V457.143ZM309.202 485.107H292.281V507.941H309.202V485.107ZM282.877 205.545H265.956V228.379H282.877V205.545ZM282.877 233.509H265.956V256.343H282.877V233.509ZM282.877 261.473H265.956V284.307H282.877V261.473ZM282.877 289.282H265.956V312.425H282.877V289.282ZM282.877 317.246H265.956V340.196H282.877V317.246ZM282.877 345.21H265.956V368.044H282.877V345.21ZM282.877 373.174H265.956V396.008H282.877V373.174ZM282.877 401.138H265.956V424.281H282.877V401.138ZM282.877 429.063H265.956V451.936H282.877V429.063ZM282.877 457.027H265.956V479.861H282.877V457.027ZM282.877 484.991H265.956V507.825H282.877V484.991ZM256.667 205.429H239.746L239.861 228.263H256.667V205.429ZM256.667 233.393H239.746L239.861 256.227H256.667V233.393ZM256.667 261.357H239.746L239.861 284.191H256.667V261.357ZM256.667 289.282H239.746L239.861 312.425H256.667V289.282ZM256.667 317.246H239.746L239.861 340.196H256.667V317.246ZM256.667 345.21H239.746L239.861 368.044H256.667V345.21ZM256.667 373.174H239.746L239.861 396.008H256.667V373.174ZM256.667 401.138H239.746L239.861 424.281H256.667V401.138ZM256.667 429.063H239.746L239.861 451.936H256.667V429.063ZM256.667 457.027H239.746L239.861 479.861H256.667V457.027ZM256.667 484.991H239.746L239.861 507.825H256.667V484.991ZM230.456 205.429H213.535L213.651 228.263H230.456V205.429ZM230.456 233.393H213.535L213.651 256.227H230.456V233.393ZM230.456 261.357H213.535L213.651 284.191H230.456V261.357ZM230.456 289.282H213.535L213.651 312.425H230.456V289.282ZM230.456 317.246H213.535L213.651 340.196H230.456V317.246ZM230.456 345.21H213.535L213.651 368.044H230.456V345.21ZM230.456 373.174H213.535L213.651 396.008H230.456V373.174ZM230.456 401.138H213.535L213.651 424.281H230.456V401.138ZM230.456 429.063H213.535L213.651 451.936H230.456V429.063ZM230.456 457.027H213.535L213.651 479.861H230.456V457.027ZM230.456 484.991H213.535L213.651 507.825H230.456V484.991ZM177.304 282.957H60.5917V299.426H177.304V282.957ZM177.304 310.226H60.5917V326.735H177.304V310.226ZM177.304 337.496H60.5917V354.004H177.304V337.496ZM177.304 364.766H60.5917V381.274H177.304V364.766ZM177.304 392.074H60.5917V408.544H177.304V392.074ZM177.304 419.344H60.5917V435.852H177.304V419.344ZM177.304 446.613H60.5917V463.122H177.304V446.613ZM177.304 473.883H60.5917V490.391H177.304V473.883ZM51.6494 277.711H34.6899V493.708H51.6494V277.711Z" fill="url(#paint0_linear_3219_340)"/>
<path d="M590.162 482.18C588.94 493.356 590.741 504.608 595.337 514.513C599.933 524.419 607.118 532.533 615.983 537.83C624.848 543.127 634.995 545.368 645.141 544.271C655.286 543.174 664.975 538.788 672.982 531.666C680.989 524.545 686.954 515.009 690.123 504.264C693.292 493.519 693.522 482.047 690.785 471.3C688.048 460.553 682.467 451.013 674.747 443.886C667.026 436.759 657.514 432.365 647.413 431.261C640.705 430.523 633.902 431.255 627.393 433.415C620.885 435.575 614.798 439.121 609.48 443.851C604.163 448.58 599.72 454.399 596.405 460.976C593.09 467.553 590.969 474.759 590.162 482.18Z" fill="#13121A"/>
<path d="M591.739 458.82L654.255 465.654C677.368 468.181 698.371 449.501 701.166 423.932L717.031 278.816C719.827 253.246 703.356 230.469 680.244 227.943L617.727 221.108C594.615 218.581 573.612 237.261 570.817 262.83L554.952 407.947C552.156 433.516 568.626 456.293 591.739 458.82Z" fill="#AB1A3A"/>
<path d="M447.147 453.879C449.439 462.813 449.684 472.281 447.86 481.444C446.037 490.607 442.201 499.18 436.695 506.404C431.188 513.627 424.18 519.278 416.292 522.853C408.405 526.429 399.882 527.819 391.481 526.9C383.079 525.982 375.058 522.783 368.129 517.588C361.201 512.392 355.579 505.361 351.763 497.118C347.947 488.876 346.055 479.676 346.255 470.336C346.454 460.995 348.739 451.804 352.907 443.576L447.147 453.879Z" fill="#13121A"/>
<path d="M267.764 455.966L383.476 468.616C387.396 469.035 391.34 467.72 394.446 464.957C397.553 462.194 399.567 458.21 400.05 453.876C400.516 449.536 399.411 445.207 396.977 441.833C394.542 438.459 390.976 436.314 387.057 435.866L271.345 423.216C267.418 422.806 263.47 424.128 260.359 426.895C257.248 429.661 255.227 433.649 254.735 437.989C254.278 442.329 255.391 446.656 257.832 450.024C260.273 453.392 263.844 455.528 267.764 455.966Z" fill="#41414D"/>
<path d="M698.577 229.839L782.146 238.975C802.878 241.242 809.454 262.904 814.451 270.755L872.093 377.812L872.065 378.06C873.94 381.545 874.715 385.636 874.272 389.709L862.423 498.092C861.859 503.093 859.531 507.687 855.948 510.875C852.364 514.062 847.814 515.584 843.291 515.108L669.563 496.115C665.047 495.602 660.937 493.133 658.132 489.246C655.326 485.359 654.054 480.371 654.592 475.371L679.589 246.727C680.132 241.757 682.438 237.185 685.999 234.018C689.56 230.851 694.084 229.348 698.577 229.839Z" fill="#E02142"/>
<path d="M808.315 481.886L420.648 439.503L417.449 468.768L805.115 511.151L808.315 481.886Z" fill="#13121A"/>
<path d="M490.489 492.694C496.418 493.342 501.806 488.551 502.523 481.991C503.24 475.432 499.015 469.589 493.086 468.941C487.157 468.293 481.769 473.085 481.052 479.644C480.335 486.203 484.56 492.046 490.489 492.694Z" fill="#13121A"/>
<path d="M874.236 445.984L870.757 448.05C866.958 450.37 861.976 447.45 862.442 443.183L866.637 404.815C866.898 403.811 867.387 402.893 868.057 402.148C868.726 401.402 869.554 400.855 870.46 400.557C871.367 400.259 872.323 400.221 873.237 400.447C874.15 400.672 874.991 401.154 875.679 401.845L878.656 404.366C879.249 404.855 879.717 405.505 880.016 406.255C880.315 407.005 880.435 407.831 880.366 408.655L876.673 442.436C876.55 443.193 876.264 443.911 875.84 444.528C875.416 445.145 874.866 445.645 874.236 445.984Z" fill="#13121A"/>
<path d="M755.179 262.511L802.942 267.733C803.412 267.798 803.862 267.976 804.259 268.256C804.655 268.535 804.989 268.91 805.237 269.351L855.395 363.643C855.625 364.19 855.724 364.796 855.682 365.403C855.64 366.01 855.458 366.598 855.155 367.113C854.851 367.627 854.435 368.05 853.946 368.342C853.457 368.634 852.912 368.785 852.361 368.781L744.846 357.027C742.826 356.778 740.995 355.653 739.754 353.899C738.513 352.144 737.963 349.904 738.225 347.667L746.677 270.362C746.774 269.239 747.071 268.143 747.553 267.139C748.034 266.134 748.689 265.241 749.48 264.511C750.271 263.78 751.182 263.228 752.16 262.884C753.138 262.541 754.165 262.414 755.179 262.511Z" fill="#DFDEE3"/>
<path d="M742.62 353.581L751.076 276.24C751.171 275.131 751.463 274.048 751.936 273.054C752.408 272.06 753.051 271.174 753.828 270.447C754.606 269.72 755.502 269.166 756.465 268.817C757.429 268.467 758.442 268.33 759.445 268.411L807.659 273.682L804.581 267.912L755.179 262.511C754.165 262.414 753.138 262.541 752.16 262.884C751.182 263.228 750.271 263.78 749.48 264.511C748.689 265.241 748.034 266.134 747.553 267.139C747.071 268.143 746.774 269.239 746.677 270.362L738.225 347.667C737.999 349.494 738.303 351.34 739.092 352.939C739.882 354.539 741.117 355.809 742.619 356.568C742.47 355.582 742.47 354.573 742.62 353.581Z" fill="#A7A8B3"/>
<path d="M723.726 506.175C723.469 508.525 723.848 510.892 724.816 512.975C725.783 515.058 727.295 516.763 729.161 517.876C731.026 518.989 733.161 519.458 735.294 519.224C737.428 518.991 739.465 518.065 741.147 516.565C742.829 515.064 744.081 513.056 744.743 510.795C745.406 508.534 745.45 506.121 744.87 503.862C744.29 501.603 743.111 499.6 741.484 498.105C739.856 496.611 737.853 495.693 735.728 495.468C734.319 495.314 732.891 495.469 731.525 495.924C730.159 496.379 728.882 497.126 727.767 498.12C726.653 499.115 725.722 500.338 725.028 501.72C724.335 503.103 723.892 504.616 723.726 506.175Z" fill="#13121A"/>
<path d="M762.406 319.868C762.832 319.913 763.263 319.864 763.675 319.723C764.086 319.583 764.47 319.354 764.805 319.051L808.041 280.597L806.722 278.078L804.765 274.265L760.793 313.503C760.455 313.8 760.173 314.167 759.963 314.583C759.752 314.998 759.617 315.454 759.566 315.923C759.515 316.393 759.548 316.867 759.664 317.318C759.779 317.769 759.976 318.188 760.241 318.552C760.502 318.921 760.827 319.227 761.199 319.453C761.571 319.679 761.981 319.82 762.406 319.868ZM790.445 311.527C790.022 311.478 789.593 311.522 789.182 311.656C788.771 311.79 788.387 312.012 788.05 312.308L744.815 350.762C745.34 351.493 745.993 352.099 746.737 352.545C747.481 352.991 748.301 353.267 749.149 353.359L751.817 353.651L792.062 317.857C792.57 317.409 792.949 316.807 793.15 316.129C793.351 315.45 793.366 314.725 793.193 314.046C793.019 313.367 792.665 312.764 792.176 312.316C791.686 311.867 791.084 311.592 790.445 311.527ZM830.23 322.785L797.803 351.626C797.466 351.923 797.184 352.291 796.973 352.706C796.763 353.121 796.628 353.577 796.576 354.047C796.525 354.516 796.558 354.99 796.674 355.441C796.79 355.892 796.986 356.312 797.251 356.675C797.515 357.038 797.843 357.337 798.215 357.557C798.588 357.777 798.997 357.912 799.42 357.956C799.843 358.005 800.272 357.961 800.683 357.827C801.094 357.693 801.479 357.471 801.815 357.174L833.521 328.975L830.23 322.785ZM801.674 332.582C802.1 332.626 802.531 332.577 802.942 332.437C803.354 332.296 803.738 332.068 804.073 331.764L825.186 312.986L823.949 310.62L821.895 306.797L800.061 326.216C799.723 326.514 799.441 326.881 799.231 327.296C799.02 327.712 798.885 328.167 798.834 328.637C798.783 329.106 798.816 329.58 798.932 330.031C799.047 330.482 799.244 330.902 799.509 331.265C799.77 331.634 800.095 331.94 800.467 332.166C800.839 332.392 801.249 332.533 801.674 332.582Z" fill="#F6F6F8"/>
<path d="M840.225 447.951L763.084 439.517C762.232 439.424 761.455 438.96 760.925 438.227C760.395 437.494 760.156 436.553 760.259 435.61C760.362 434.667 760.799 433.799 761.475 433.198C762.151 432.597 763.009 432.312 763.862 432.405L841.003 440.839C841.855 440.932 842.632 441.396 843.162 442.129C843.692 442.862 843.931 443.803 843.828 444.746C843.725 445.689 843.288 446.557 842.612 447.158C841.936 447.759 841.078 448.044 840.225 447.951Z" fill="#240000"/>
<path d="M550.407 487.01C551.656 475.462 550.087 463.822 545.863 453.3L687.514 468.787C681.121 478.152 677.064 489.171 675.761 500.715L550.407 487.01Z" fill="#41414D"/>
<path d="M380.17 435.186L444.904 442.263C438.498 451.62 434.44 462.644 433.152 474.191L376.582 468.007C372.654 467.558 369.08 465.409 366.64 462.027C364.201 458.646 363.093 454.307 363.56 449.958C364.044 445.615 366.063 441.621 369.176 438.853C372.289 436.084 376.242 434.766 380.17 435.186Z" fill="#41414D"/>
<path d="M788.567 479.835L853.752 486.961C857.674 487.409 861.244 489.553 863.683 492.926C866.123 496.3 867.235 500.63 866.777 504.974C866.293 509.321 864.275 513.318 861.162 516.092C858.049 518.866 854.096 520.193 850.163 519.782L793.143 513.548C794.381 501.995 792.801 490.355 788.567 479.835Z" fill="#41414D"/>
<path d="M867.682 517.523C867.526 520.085 866.461 522.498 864.717 524.235C862.974 525.972 860.694 526.893 858.374 526.797L817.328 522.31C815.043 521.902 813.015 520.51 811.688 518.437C810.361 516.364 809.842 513.779 810.244 511.244L811.562 499.189C811.717 496.627 812.783 494.215 814.527 492.477C816.27 490.74 818.55 489.819 820.87 489.915L862.044 494.417C864.33 494.824 866.357 496.216 867.684 498.289C869.011 500.362 869.53 502.948 869.128 505.483L867.682 517.523Z" fill="#13121A"/>
<path d="M859.584 516.925L818.409 512.424C816.124 512.016 814.097 510.625 812.77 508.552C811.443 506.479 810.923 503.893 811.325 501.358L810.244 511.243C809.843 513.779 810.362 516.364 811.689 518.437C813.016 520.51 815.043 521.902 817.329 522.309L858.503 526.811C860.823 526.907 863.103 525.986 864.846 524.249C866.59 522.512 867.655 520.099 867.811 517.537L868.892 507.652C868.736 510.214 867.67 512.626 865.927 514.363C864.183 516.1 861.903 517.021 859.584 516.925Z" fill="#13121A"/>
<path d="M697.02 350.996L713.581 352.806C724.748 354.027 723.44 354.639 724.771 342.461L732.705 269.894C732.705 269.894 734.732 260.559 727.275 259.744L707.236 257.553C696.069 256.332 686.399 265.585 685.068 277.763L678.221 340.39C676.862 352.816 685.853 349.775 697.02 350.996Z" fill="#DFDEE3"/>
<path d="M759.993 391.932L780.435 394.167C781.228 394.254 782.026 393.989 782.655 393.43C783.283 392.871 783.69 392.064 783.786 391.187C783.833 390.753 783.803 390.314 783.697 389.897C783.59 389.479 783.41 389.09 783.166 388.753C782.922 388.415 782.619 388.136 782.275 387.93C781.93 387.724 781.551 387.596 781.158 387.553L760.716 385.318C760.323 385.275 759.925 385.318 759.544 385.445C759.164 385.571 758.807 385.779 758.496 386.056C758.185 386.333 757.925 386.673 757.731 387.058C757.537 387.443 757.412 387.864 757.365 388.298C757.318 388.733 757.348 389.171 757.454 389.589C757.561 390.007 757.741 390.395 757.985 390.733C758.229 391.07 758.532 391.35 758.876 391.555C759.221 391.761 759.6 391.889 759.993 391.932Z" fill="#240000"/>
<path d="M716.383 307.064C716.72 306.767 717.104 306.546 717.515 306.411C717.926 306.277 718.355 306.233 718.778 306.282C719.201 306.326 719.611 306.462 719.983 306.681C720.355 306.901 720.683 307.201 720.947 307.563C721.217 307.928 721.417 308.35 721.536 308.805C721.654 309.259 721.688 309.738 721.636 310.211C721.585 310.685 721.448 311.145 721.234 311.563C721.02 311.981 720.734 312.35 720.391 312.648L680.006 348.535C679.17 347.652 678.533 346.564 678.147 345.354C677.76 344.145 677.633 342.847 677.776 341.562L716.383 307.064ZM690.735 314.659C690.31 314.611 689.9 314.47 689.528 314.244C689.157 314.018 688.831 313.712 688.57 313.343C688.305 312.98 688.109 312.56 687.993 312.109C687.877 311.658 687.844 311.184 687.895 310.715C687.946 310.245 688.081 309.79 688.292 309.374C688.502 308.959 688.784 308.591 689.122 308.294L732.97 269.295L731.897 279.109L693.134 313.842C692.8 314.146 692.415 314.374 692.004 314.514C691.592 314.655 691.161 314.704 690.735 314.659Z" fill="#F6F6F8"/>
<path d="M694.868 255.738L726.463 259.192C727.952 259.356 729.355 259.997 730.501 261.036C731.646 262.076 732.322 263.294 732.751 264.869C731.845 264.311 731.009 264.131 729.971 264.001L698.343 260.544C696.319 260.332 694.283 261.016 692.682 262.446C691.081 263.876 690.045 265.935 689.8 268.174L681.247 346.404C681.117 347.555 681.211 348.719 681.525 349.816C680.231 349.02 679.186 347.817 678.519 346.356C677.851 344.895 677.592 343.24 677.772 341.598L686.325 263.368C686.569 261.129 687.606 259.07 689.207 257.64C690.808 256.21 692.843 255.526 694.868 255.738Z" fill="#A7A8B3"/>
<path d="M509.223 157.716L309.492 135.88C299.515 134.789 290.45 142.852 289.243 153.889L262.057 402.553C260.851 413.59 267.96 423.422 277.936 424.512L477.667 446.348C487.644 447.439 496.709 439.376 497.916 428.339L525.102 179.675C526.308 168.638 519.199 158.807 509.223 157.716Z" fill="#D2C4B2"/>
<path d="M550.364 162.214L350.633 140.378C340.657 139.287 331.591 147.35 330.385 158.387L303.199 407.051C301.992 418.088 309.101 427.919 319.078 429.01L518.809 450.846C528.785 451.937 537.851 443.874 539.058 432.837L566.243 184.173C567.45 173.136 560.341 163.305 550.364 162.214Z" fill="#CCBDA9"/>
<path d="M439.627 485.175C438.406 496.35 440.207 507.602 444.803 517.507C449.399 527.413 456.584 535.527 465.449 540.824C474.314 546.121 484.461 548.362 494.606 547.265C504.752 546.168 514.441 541.782 522.448 534.66C530.454 527.539 536.419 518.003 539.588 507.258C542.757 496.513 542.988 485.041 540.251 474.294C537.514 463.547 531.933 454.007 524.213 446.88C516.492 439.753 506.98 435.359 496.879 434.255C490.171 433.517 483.368 434.249 476.859 436.409C470.351 438.569 464.263 442.116 458.946 446.845C453.629 451.574 449.186 457.393 445.871 463.97C442.556 470.547 440.434 477.753 439.627 485.175Z" fill="#41414D"/>
<path d="M461.292 487.543C460.595 493.977 461.637 500.454 464.288 506.153C466.94 511.853 471.08 516.52 476.185 519.565C481.291 522.61 487.134 523.895 492.974 523.259C498.815 522.623 504.391 520.094 508.999 515.992C513.606 511.889 517.038 506.398 518.86 500.211C520.682 494.024 520.813 487.42 519.236 481.234C517.659 475.047 514.444 469.555 509.999 465.453C505.554 461.351 500.078 458.822 494.263 458.186C490.398 457.764 486.479 458.188 482.729 459.435C478.98 460.682 475.474 462.727 472.412 465.454C469.35 468.18 466.792 471.534 464.883 475.325C462.975 479.115 461.755 483.267 461.292 487.543Z" fill="#13121A"/>
<path d="M607.577 168.469L392.514 144.957C382.538 143.866 373.472 151.929 372.265 162.966L345.08 411.63C343.873 422.667 350.982 432.498 360.959 433.589L576.022 457.101C585.998 458.192 595.064 450.129 596.27 439.092L623.456 190.428C624.663 179.391 617.553 169.56 607.577 168.469Z" fill="#D2C4B2"/>
<path d="M658.008 173.983L443.17 150.495C433.194 149.404 424.128 157.467 422.922 168.504L395.736 417.168C394.529 428.205 401.639 438.036 411.615 439.127L626.453 462.615C636.429 463.705 645.495 455.642 646.701 444.605L673.887 195.942C675.094 184.905 667.985 175.073 658.008 173.983Z" fill="#D9CDBF"/>
<path d="M590.799 166.635L502.087 156.936L470.532 445.568L559.244 455.267L590.799 166.635Z" fill="#CFC0AD"/>
<path d="M872 509.84C872 521.083 875.014 532.074 880.661 541.422C886.308 550.77 894.334 558.056 903.724 562.357C913.114 566.658 923.446 567.781 933.413 565.585C943.381 563.389 952.535 557.972 959.719 550.019C966.903 542.066 971.794 531.935 973.773 520.907C975.752 509.879 974.73 498.449 970.836 488.063C966.942 477.678 960.352 468.803 951.899 462.562C943.445 456.321 933.509 452.993 923.346 453C916.6 453 909.921 454.47 903.689 457.327C897.457 460.184 891.796 464.372 887.027 469.65C882.259 474.929 878.478 481.195 875.899 488.091C873.321 494.987 871.996 502.377 872 509.84Z" fill="#41414D"/>
<path d="M923.346 539.959C938.382 539.959 950.571 526.474 950.571 509.84C950.571 493.206 938.382 479.721 923.346 479.721C908.31 479.721 896.121 493.206 896.121 509.84C896.121 526.474 908.31 539.959 923.346 539.959Z" fill="#13121A"/>
<path d="M236.754 443.75C228.863 430.083 209.137 430.083 201.246 443.75L152.749 527.75C144.859 541.417 154.722 558.5 170.503 558.5H267.497C283.278 558.5 293.141 541.417 285.251 527.75L236.754 443.75Z" fill="#FDF78A" stroke="#737380" stroke-width="13"/>
<path d="M224.371 505.986C224.308 508.721 222.073 510.905 219.338 510.905C216.6 510.905 214.365 508.718 214.304 505.981L213.463 468.025C213.39 464.719 216.049 462 219.356 462C222.664 462 225.325 464.723 225.248 468.03L224.371 505.986ZM213 525.857C213 524.048 213.581 522.556 214.743 521.381C215.905 520.175 217.49 519.571 219.5 519.571C221.51 519.571 223.095 520.175 224.257 521.381C225.419 522.556 226 524.048 226 525.857C226 527.603 225.435 529.063 224.304 530.238C223.174 531.413 221.572 532 219.5 532C217.428 532 215.826 531.413 214.696 530.238C213.565 529.063 213 527.603 213 525.857Z" fill="#737380"/>
<defs>
<linearGradient id="paint0_linear_3219_340" x1="1415" y1="410" x2="3.00382e-05" y2="432.5" gradientUnits="userSpaceOnUse">
<stop stop-color="#A8A8B3" stop-opacity="0"/>
<stop offset="0.158424" stop-color="#A8A8B3"/>
<stop offset="0.817584" stop-color="#A8A8B3"/>
<stop offset="1" stop-color="#A8A8B3" stop-opacity="0"/>
</linearGradient>
</defs>
</svg>
