<svg width="160" height="89" viewBox="0 0 160 89" fill="none" xmlns="http://www.w3.org/2000/svg">
<path d="M39.3999 44.1578H34.3228V25.9796C34.3228 25.6246 34.2518 25.2932 34.1097 24.9855C33.9796 24.6778 33.7961 24.4115 33.5594 24.1866C33.3346 23.9499 33.0683 23.7665 32.7606 23.6363C32.4529 23.5061 32.1215 23.4411 31.7665 23.4411C31.4114 23.4411 31.08 23.5061 30.7723 23.6363C30.4646 23.7665 30.1924 23.9499 29.9557 24.1866C29.7309 24.4115 29.5534 24.6778 29.4232 24.9855C29.293 25.2932 29.2279 25.6246 29.2279 25.9796V44.1578H24.133V25.9796C24.133 25.6246 24.0679 25.2932 23.9378 24.9855C23.8076 24.6778 23.6241 24.4115 23.3874 24.1866C23.1626 23.9499 22.8963 23.7665 22.5886 23.6363C22.2809 23.5061 21.9495 23.4411 21.5945 23.4411C21.2394 23.4411 20.9081 23.5061 20.6004 23.6363C20.2927 23.7665 20.0205 23.9499 19.7838 24.1866C19.5589 24.4115 19.3814 24.6778 19.2512 24.9855C19.121 25.2932 19.0559 25.6246 19.0559 25.9796V44.1578H13.9611V25.9796C13.9611 24.9263 14.1563 23.9381 14.5469 23.015C14.9493 22.0801 15.4937 21.2694 16.1801 20.583C16.8783 19.8847 17.689 19.3403 18.6121 18.9498C19.5471 18.5474 20.5412 18.3462 21.5945 18.3462C22.5413 18.3462 23.4525 18.5178 24.3283 18.861C25.2041 19.1924 25.9911 19.6776 26.6893 20.3167C27.3876 19.6776 28.1687 19.1924 29.0326 18.861C29.9084 18.5178 30.8197 18.3462 31.7665 18.3462C32.8197 18.3462 33.8079 18.5474 34.7311 18.9498C35.666 19.3403 36.4767 19.8847 37.1631 20.583C37.8614 21.2694 38.4058 22.0801 38.7963 23.015C39.1987 23.9381 39.3999 24.9263 39.3999 25.9796V44.1578Z" fill="#E02041"/>
<path d="M55.2348 44.1578H50.1577V36.1871C49.0334 35.9031 47.9978 35.4474 47.051 34.8202C46.1161 34.1929 45.3113 33.4473 44.6367 32.5834C43.9622 31.7076 43.4355 30.7431 43.0568 29.6898C42.6899 28.6247 42.5065 27.5063 42.5065 26.3347V18.7012H47.6014V26.3347C47.6014 27.0329 47.7315 27.6957 47.9919 28.3229C48.2641 28.9383 48.631 29.4768 49.0925 29.9383C49.5541 30.3999 50.0926 30.7668 50.708 31.039C51.3352 31.2993 51.998 31.4295 52.6962 31.4295C53.3945 31.4295 54.0513 31.2993 54.6667 31.039C55.2939 30.7668 55.8383 30.3999 56.2999 29.9383C56.7615 29.4768 57.1224 28.9383 57.3828 28.3229C57.655 27.6957 57.7911 27.0329 57.7911 26.3347V18.7012H62.8682V26.3347C62.8682 27.5063 62.6788 28.6247 62.3001 29.6898C61.9332 30.7431 61.4125 31.7076 60.7379 32.5834C60.0634 33.4473 59.2586 34.1929 58.3236 34.8202C57.3887 35.4474 56.3591 35.9031 55.2348 36.1871V44.1578Z" fill="#E02041"/>
<path d="M128.232 21.6118L104.373 7.85314M93.159 15.1433L116.302 28.5308L139.445 15.1433M116.302 55.2263V28.5044M140.161 39.1084V17.9005C140.16 16.9707 139.915 16.0575 139.449 15.2526C138.984 14.4476 138.315 13.7792 137.51 13.3143L118.953 2.71033C118.147 2.24498 117.233 2 116.302 2C115.371 2 114.457 2.24498 113.651 2.71033L95.0942 13.3143C94.289 13.7792 93.6202 14.4476 93.1549 15.2526C92.6896 16.0575 92.4442 16.9707 92.4432 17.9005V39.1084C92.4442 40.0381 92.6896 40.9513 93.1549 41.7563C93.6202 42.5612 94.289 43.2297 95.0942 43.6946L113.651 54.2985C114.457 54.7639 115.371 55.0088 116.302 55.0088C117.233 55.0088 118.147 54.7639 118.953 54.2985L137.51 43.6946C138.315 43.2297 138.984 42.5612 139.449 41.7563C139.915 40.9513 140.16 40.0381 140.161 39.1084Z" stroke="black" stroke-width="4" stroke-linecap="round" stroke-linejoin="round"/>
<path d="M5.09486 67.2219V77.4116H10.1897C10.888 77.4116 11.5448 77.2814 12.1602 77.0211C12.7756 76.7489 13.3141 76.382 13.7757 75.9204C14.2372 75.4589 14.5982 74.9204 14.8585 74.305C15.1307 73.6777 15.2668 73.015 15.2668 72.3167C15.2668 71.6185 15.1307 70.9617 14.8585 70.3463C14.5982 69.719 14.2372 69.1746 13.7757 68.7131C13.3141 68.2515 12.7756 67.8905 12.1602 67.6302C11.5448 67.358 10.888 67.2219 10.1897 67.2219H5.09486ZM5.09486 87.5836H0V62.127H10.1897C11.1247 62.127 12.0241 62.2513 12.8881 62.4998C13.752 62.7365 14.5568 63.0797 15.3023 63.5294C16.0598 63.9673 16.7462 64.4999 17.3616 65.1271C17.9888 65.7425 18.5214 66.4289 18.9593 67.1864C19.409 67.9438 19.7522 68.7545 19.9889 69.6184C20.2374 70.4824 20.3617 71.3818 20.3617 72.3167C20.3617 73.7132 20.0954 75.0328 19.5629 76.2755C19.0303 77.5063 18.3025 78.5832 17.3793 79.5064C16.4562 80.4295 15.3733 81.1573 14.1307 81.6899C12.8999 82.2224 11.5862 82.4887 10.1897 82.4887H5.09486V87.5836Z" fill="#13131A"/>
<path d="M38.3446 77.4116V72.3167C38.3446 71.6185 38.2085 70.9617 37.9363 70.3463C37.6759 69.719 37.315 69.1746 36.8534 68.7131C36.3919 68.2515 35.8475 67.8905 35.2202 67.6302C34.6048 67.358 33.948 67.2219 33.2497 67.2219C32.5515 67.2219 31.8888 67.358 31.2615 67.6302C30.6461 67.8905 30.1076 68.2515 29.6461 68.7131C29.1845 69.1746 28.8176 69.719 28.5454 70.3463C28.2851 70.9617 28.1549 71.6185 28.1549 72.3167V77.4116H38.3446ZM43.4395 87.5836H38.3446V82.4887H28.1549V87.5836H23.0778V72.3167C23.0778 70.9084 23.3441 69.5888 23.8766 68.358C24.4092 67.1154 25.1311 66.0325 26.0424 65.1094C26.9655 64.1863 28.0425 63.4584 29.2733 62.9259C30.5159 62.3933 31.8414 62.127 33.2497 62.127C34.6581 62.127 35.9777 62.3933 37.2085 62.9259C38.4511 63.4584 39.534 64.1863 40.4571 65.1094C41.3802 66.0325 42.1081 67.1154 42.6406 68.358C43.1732 69.5888 43.4395 70.9084 43.4395 72.3167V87.5836Z" fill="#13131A"/>
<path d="M68.186 84.974C67.0025 85.9918 65.677 86.7729 64.2095 87.3173C62.742 87.8617 61.2212 88.1339 59.6472 88.1339C58.44 88.1339 57.2743 87.9741 56.15 87.6546C55.0375 87.3469 53.9902 86.909 53.0079 86.3409C52.0374 85.761 51.1498 85.0687 50.3451 84.2639C49.5403 83.4592 48.848 82.5716 48.2681 81.6011C47.7 80.6188 47.2562 79.5714 46.9366 78.459C46.6289 77.3347 46.4751 76.169 46.4751 74.9618C46.4751 73.7547 46.6289 72.5889 46.9366 71.4646C47.2562 70.3403 47.7 69.293 48.2681 68.3225C48.848 67.3402 49.5403 66.4467 50.3451 65.6419C51.1498 64.8372 52.0374 64.1508 53.0079 63.5827C53.9902 63.0028 55.0375 62.559 56.15 62.2513C57.2743 61.9317 58.44 61.772 59.6472 61.772C61.2212 61.772 62.742 62.0442 64.2095 62.5886C65.677 63.1211 67.0025 63.9022 68.186 64.9319L65.4876 69.3699C64.742 68.5651 63.8603 67.9497 62.8426 67.5237C61.8248 67.0858 60.7596 66.8668 59.6472 66.8668C58.5229 66.8668 57.4696 67.0799 56.4873 67.5059C55.505 67.932 54.647 68.5119 53.9132 69.2456C53.1795 69.9675 52.5996 70.8256 52.1735 71.8197C51.7475 72.802 51.5345 73.8493 51.5345 74.9618C51.5345 76.0743 51.7475 77.1217 52.1735 78.1039C52.5996 79.0744 53.1795 79.9265 53.9132 80.6602C54.647 81.394 55.505 81.9739 56.4873 82.4C57.4696 82.826 58.5229 83.039 59.6472 83.039C60.7596 83.039 61.8248 82.826 62.8426 82.4C63.8603 81.9621 64.742 81.3407 65.4876 80.536L68.186 84.974Z" fill="#13131A"/>
<path d="M76.2454 87.5836H71.1506V62.127H76.2454V74.8553L85.7251 62.127H91.5123L83.4705 72.8671L91.5123 87.5836H85.7251L80.1331 77.2873L76.2454 82.4887V87.5836Z" fill="#13131A"/>
<path d="M108.856 77.4116V72.3167C108.856 71.6185 108.72 70.9617 108.448 70.3463C108.187 69.719 107.826 69.1746 107.365 68.7131C106.903 68.2515 106.359 67.8905 105.732 67.6302C105.116 67.358 104.459 67.2219 103.761 67.2219C103.063 67.2219 102.4 67.358 101.773 67.6302C101.158 67.8905 100.619 68.2515 100.158 68.7131C99.696 69.1746 99.3291 69.719 99.0569 70.3463C98.7966 70.9617 98.6664 71.6185 98.6664 72.3167V77.4116H108.856ZM113.951 87.5836H108.856V82.4887H98.6664V87.5836H93.5893V72.3167C93.5893 70.9084 93.8555 69.5888 94.3881 68.358C94.9207 67.1154 95.6426 66.0325 96.5539 65.1094C97.477 64.1863 98.5539 63.4584 99.7848 62.9259C101.027 62.3933 102.353 62.127 103.761 62.127C105.17 62.127 106.489 62.3933 107.72 62.9259C108.963 63.4584 110.045 64.1863 110.969 65.1094C111.892 66.0325 112.62 67.1154 113.152 68.358C113.685 69.5888 113.951 70.9084 113.951 72.3167V87.5836Z" fill="#13131A"/>
<path d="M138.626 85.0095C137.443 86.0155 136.123 86.7906 134.668 87.335C133.212 87.8676 131.697 88.1339 130.123 88.1339C128.916 88.1339 127.75 87.9741 126.626 87.6546C125.514 87.3469 124.472 86.909 123.502 86.3409C122.531 85.761 121.644 85.0746 120.839 84.2817C120.034 83.4769 119.348 82.5893 118.78 81.6189C118.211 80.6366 117.768 79.5833 117.448 78.459C117.14 77.3347 116.987 76.169 116.987 74.9618C116.987 73.7547 117.14 72.5949 117.448 71.4824C117.768 70.3699 118.211 69.3285 118.78 68.358C119.348 67.3757 120.034 66.4881 120.839 65.6952C121.644 64.8904 122.531 64.204 123.502 63.6359C124.472 63.0679 125.514 62.63 126.626 62.3223C127.75 62.0028 128.916 61.843 130.123 61.843C131.697 61.843 133.212 62.1152 134.668 62.6596C136.123 63.1921 137.443 63.9614 138.626 64.9674L135.964 69.4054C135.194 68.6243 134.307 68.0148 133.301 67.5769C132.295 67.1272 131.236 66.9023 130.123 66.9023C129.011 66.9023 127.963 67.1154 126.981 67.5414C126.011 67.9675 125.158 68.5474 124.425 69.2811C123.691 70.003 123.111 70.8551 122.685 71.8374C122.259 72.8079 122.046 73.8493 122.046 74.9618C122.046 76.0861 122.259 77.1394 122.685 78.1217C123.111 79.104 123.691 79.962 124.425 80.6957C125.158 81.4295 126.011 82.0094 126.981 82.4355C127.963 82.8615 129.011 83.0745 130.123 83.0745C130.762 83.0745 131.384 82.9976 131.987 82.8438C132.591 82.6899 133.165 82.4769 133.709 82.2047V74.9618H138.626V85.0095Z" fill="#13131A"/>
<path d="M160 87.5836H142.55V62.127H160V67.2219H147.645V72.3167H156.006V77.4116H147.645V82.4887H160V87.5836Z" fill="#13131A"/>
</svg>
